<?xml version="1.0" encoding="UTF-8" standalone="no"?>
<svg
   xmlns:dc="http://purl.org/dc/elements/1.1/"
   xmlns:cc="http://creativecommons.org/ns#"
   xmlns:rdf="http://www.w3.org/1999/02/22-rdf-syntax-ns#"
   xmlns:svg="http://www.w3.org/2000/svg"
   xmlns="http://www.w3.org/2000/svg"
   xmlns:sodipodi="http://sodipodi.sourceforge.net/DTD/sodipodi-0.dtd"
   xmlns:inkscape="http://www.inkscape.org/namespaces/inkscape"
   version="1.1"
   x="0px"
   y="0px"
   viewBox="0 0 100 99"
   enable-background="new 0 0 100 100"
   xml:space="preserve"
   id="svg16"
   sodipodi:docname="download.svg"
   width="100"
   height="99"
   inkscape:version="0.92.3 (2405546, 2018-03-11)"><metadata
     id="metadata22"><rdf:RDF><cc:Work
         rdf:about=""><dc:format>image/svg+xml</dc:format><dc:type
           rdf:resource="http://purl.org/dc/dcmitype/StillImage" /><dc:title></dc:title></cc:Work></rdf:RDF></metadata><defs
     id="defs20" /><sodipodi:namedview
     pagecolor="#ffffff"
     bordercolor="#666666"
     borderopacity="1"
     objecttolerance="10"
     gridtolerance="10"
     guidetolerance="10"
     inkscape:pageopacity="0"
     inkscape:pageshadow="2"
     inkscape:window-width="640"
     inkscape:window-height="480"
     id="namedview18"
     showgrid="false"
     inkscape:zoom="1.888"
     inkscape:cx="50"
     inkscape:cy="62.5"
     inkscape:window-x="0"
     inkscape:window-y="25"
     inkscape:window-maximized="0"
     inkscape:current-layer="svg16" /><g
     id="g10"
     transform="translate(0,-0.940678)"><g
       id="g4"><path
         d="m 87.181,60.172 c -0.774,0 -1.408,0.634 -1.408,1.408 v 24.79 c 0,0.774 -0.634,1.408 -1.408,1.408 H 14.791 c -0.774,0 -1.408,-0.634 -1.408,-1.408 V 61.58 c 0,-0.774 -0.634,-1.408 -1.408,-1.408 H 1.408 C 0.634,60.172 0,60.806 0,61.58 V 98.592 C 0,99.366 0.634,100 1.408,100 H 98.592 C 99.366,100 100,99.366 100,98.592 V 61.58 c 0,-0.774 -0.634,-1.408 -1.408,-1.408 z"
         id="path2"
         inkscape:connector-curvature="0" /></g><g
       id="g8"><path
         d="m 59.944,41.794 c -1.24,0 -2.254,-1.014 -2.254,-2.253 V 3.899 C 57.69,2.66 56.676,1.646 55.436,1.646 H 44.563 c -1.24,0 -2.254,1.014 -2.254,2.253 v 35.642 c 0,1.239 -1.014,2.253 -2.254,2.253 H 27.174 c -1.24,0 -1.683,0.838 -0.983,1.861 L 48.73,76.689 c 0.699,1.023 1.842,1.023 2.541,0 L 73.81,43.656 c 0.699,-1.023 0.257,-1.861 -0.983,-1.861 H 59.944 Z"
         id="path6"
         inkscape:connector-curvature="0" /></g></g></svg>