<?xml version="1.0" encoding="UTF-8" standalone="no"?>
<svg
   xmlns:dc="http://purl.org/dc/elements/1.1/"
   xmlns:cc="http://creativecommons.org/ns#"
   xmlns:rdf="http://www.w3.org/1999/02/22-rdf-syntax-ns#"
   xmlns:svg="http://www.w3.org/2000/svg"
   xmlns="http://www.w3.org/2000/svg"
   xmlns:sodipodi="http://sodipodi.sourceforge.net/DTD/sodipodi-0.dtd"
   xmlns:inkscape="http://www.inkscape.org/namespaces/inkscape"
   data-name="Layer 1"
   viewBox="0 0 501.13963 417.54389"
   x="0px"
   y="0px"
   version="1.1"
   id="svg10"
   sodipodi:docname="noun_drum kit_1762836.svg"
   width="501.13962"
   height="417.54388"
   inkscape:version="0.92.3 (2405546, 2018-03-11)">
  <metadata
     id="metadata16">
    <rdf:RDF>
      <cc:Work
         rdf:about="">
        <dc:format>image/svg+xml</dc:format>
        <dc:type
           rdf:resource="http://purl.org/dc/dcmitype/StillImage" />
        <dc:title>Drum_kit-RAD</dc:title>
      </cc:Work>
    </rdf:RDF>
  </metadata>
  <defs
     id="defs14" />
  <sodipodi:namedview
     pagecolor="#ffffff"
     bordercolor="#666666"
     borderopacity="1"
     objecttolerance="10"
     gridtolerance="10"
     guidetolerance="10"
     inkscape:pageopacity="0"
     inkscape:pageshadow="2"
     inkscape:window-width="874"
     inkscape:window-height="631"
     id="namedview12"
     showgrid="false"
     inkscape:zoom="0.45776898"
     inkscape:cx="250.56981"
     inkscape:cy="257.77194"
     inkscape:window-x="693"
     inkscape:window-y="201"
     inkscape:window-maximized="0"
     inkscape:current-layer="svg10" />
  <title
     id="title2">Drum_kit-RAD</title>
  <path
     d="m 500.97508,363.19779 -4.375,-11.40625 a 2.51235,2.51235 0 0 0 -2.7832,-1.56738 l -2.89185,0.52582 -46.38122,-55.60669 c -0.0116,-0.0296 -0.006,-0.0607 -0.0189,-0.09 a 2.43147,2.43147 0 0 0 -0.94361,-1.06415 l -31.65893,-37.95593 v -19.3692 c 6.32751,-0.0241 10.49805,-0.0726 10.49805,-0.0726 a 2.50193,2.50193 0 0 0 2.4707,-2.5 v -2.10449 a 4.46589,4.46589 0 0 0 2.34371,-3.98925 4.85379,4.85379 0 0 0 -1.61621,-3.78418 4.36,4.36 0 0 0 -0.72754,-0.38635 v -25.92347 c 1.22467,-0.47912 2.34375,-1.57959 2.34375,-4.2102 a 4.31622,4.31622 0 0 0 -2.34375,-3.94531 v -2.68559 a 2.50435,2.50435 0 0 0 -1.958,-2.44141 107.32132,107.32132 0 0 0 -11.01074,-1.52405 v -46.29425 c 12.82043,-0.37933 54.78577,-2.38647 54.56055,-12.46 -0.0635,-2.84179 -2.28028,-6.04492 -18.22266,-8.23974 a 242.01281,242.01281 0 0 0 -32.63153,-1.7981 2.45366,2.45366 0 0 0 0.16083,-0.79712 v -1.93848 a 2.4987,2.4987 0 0 0 -1.001,-1.99951 7.92449,7.92449 0 0 0 -2.68921,-1.13189 l -0.177,-21.111812 a 2.49866,2.49866 0 0 0 -2.5,-2.478012 h -0.0195 a 2.5023,2.5023 0 0 0 -2.48047,2.522012 l 0.1767,21.073052 a 10.73378,10.73378 0 0 0 -2.86225,1.07788 2.49785,2.49785 0 0 0 -1.18652,2.12647 v 2.01406 a 2.48587,2.48587 0 0 0 0.18646,0.9256 c -8.6264,0.35583 -22.75787,1.25824 -33.91968,3.47137 l -1.59759,-27.88242 a 4.48146,4.48146 0 0 0 1.615,-1.421828 c 2.207,-3.232432 0.20019,-9.067416 -0.46875,-10.778854 C 367.7146,75.0196 360.65649,66.951324 348.6466,60.89147 a 2.40147,2.40147 0 0 0 -0.52856,-0.26733 68.60715,68.60715 0 0 0 -30.57556,-7.052948 c -42.1875,0 -57.0459,20.974204 -57.0459,25.468854 a 5.85474,5.85474 0 0 0 2.334,4.545606 v 3.694166 c 0,0.04 0.0211,0.0732 0.0229,0.11292 a 9.55655,9.55655 0 0 0 -1.61957,14.963432 v 75.40069 c -0.91369,-0.0204 -1.8222,-0.0693 -2.73926,-0.0693 -2.449,0 -4.8822,0.0894 -7.30468,0.23407 V 102.35612 A 9.55655,9.55655 0 0 0 249.5704,87.392688 c 0.002,-0.0397 0.0229,-0.0729 0.0229,-0.11292 v -3.693856 a 5.854,5.854 0 0 0 2.334,-4.545916 c 0,-4.49465 -14.8584,-25.468854 -57.0459,-25.468854 a 68.60715,68.60715 0 0 0 -30.57556,7.052948 2.40147,2.40147 0 0 0 -0.52856,0.26733 c -12.00989,6.059894 -19.068,14.12817 -20.21912,17.084068 -0.66894,1.711438 -2.67578,7.546422 -0.46875,10.778854 a 4.48719,4.48719 0 0 0 1.63513,1.439828 l -2.14843,45.11387 c -6.34522,5.57618 -3.77961,16.90674 -3.35053,18.59711 -0.0861,6.637 5.56152,13.05054 16.08063,18.12073 10.14648,4.89013 23.79883,8.11767 38.44238,9.09424 q 3.53028,0.23438 7.0459,0.22949 c 14.29657,0 28.04321,-2.73682 36.958,-5.93842 v 4.08631 a 117.85193,117.85193 0 0 0 -27.5821,8.41858 l -0.0839,-0.14557 a 2.51686,2.51686 0 0 0 -1.58691,-1.18409 10.98011,10.98011 0 0 0 -4.87885,0.0604 2.48249,2.48249 0 0 0 -1.55182,-0.91 c -17.73437,-2.76856 -43.74511,-3.68165 -44.00879,-3.689 -0.008,-6.1e-4 -0.0146,0.004 -0.0223,0.003 -0.009,-3.1e-4 -0.0171,-0.006 -0.0266,-0.006 q -3.90381,-0.0513 -8.11036,-0.0513 c -36.10351,0 -50.26367,3.0542 -50.8496,3.18359 a 2.50435,2.50435 0 0 0 -1.958,2.44141 v 2.644 a 4.31622,4.31622 0 0 0 -2.34375,3.94531 c 0,2.63062 1.11908,3.73108 2.34375,4.21021 v 65.0592 a 4.38137,4.38137 0 0 0 -0.73242,0.3888 4.85227,4.85227 0 0 0 -1.61133,3.77929 4.46586,4.46586 0 0 0 2.34375,3.98926 v 2.10449 a 2.4967,2.4967 0 0 0 2.2998,2.49024 c 0.10132,0.009 4.47022,0.3482 11.03729,0.59875 l 2.23908,4.86512 a 2.49509,2.49509 0 0 0 1.91406,1.43066 86.96746,86.96746 0 0 0 11.27442,0.57617 c 3.41339,0 7.58911,-0.12878 12.46643,-0.48645 l 1.47247,1.47492 c -0.002,0.0253 -0.005,0.0507 -0.008,0.076 a 2.49346,2.49346 0 0 0 -1.81152,0.78125 c -0.44922,0.46875 -2.6709,2.959 -2.6709,5.88867 v 3.23242 a 2.50265,2.50265 0 0 0 2.10449,2.4707 c 0.0607,0.009 0.73242,0.10376 1.71448,0.17639 0.002,0.77424 0.0327,1.54175 0.0485,2.31171 -1.02447,0.0754 -1.70563,0.18 -1.76788,0.19257 a 2.49709,2.49709 0 0 0 -2.09961,2.46582 v 3.22754 c 0,2.93457 2.22168,5.4248 2.6709,5.89355 a 2.49346,2.49346 0 0 0 1.81152,0.78125 h 0.005 l 0.31647,-0.002 a 118.83015,118.83015 0 0 0 8.18939,30.79681 L 90.62352,282.65336 V 70.15812 a 2.30433,2.30433 0 0 0 -0.047,-0.232544 152.98945,152.98945 0 0 0 32.45911,3.884906 c 16.96289,0 30.62988,-3.852556 33.57422,-13.098202 C 159.11473,52.848478 154.1245,43.336722 142.55711,33.927502 131.60497,25.01878 115.87743,17.025588 98.26511,11.422534 80.65281,5.8170385 63.18211,3.2364999 49.11472,4.1959442 34.23681,5.1895985 24.66649,10.06755 22.16649,17.928908 c -2.50488,7.863802 2.48532,17.375562 14.05273,26.784778 10.95215,8.908726 26.67969,16.901918 44.292,22.504972 1.62872,0.5191 3.24493,0.982054 4.86053,1.444704 0.10254,0.363164 0.2301,0.686954 0.32013,1.067514 0.0024,0.0104 0.0095,0.018 0.0119,0.0284 A 2.35613,2.35613 0 0 0 85.62352,70.15814 V 282.755 l -76.03424,91.71906 -2.26654,-0.412 a 2.53495,2.53495 0 0 0 -2.7832,1.56738 l -4.375,11.40622 a 2.49881,2.49881 0 0 0 2.334,3.39356 h 10.9375 a 2.49834,2.49834 0 0 0 2.44629,-1.99707 l 2.03125,-9.84375 a 2.46744,2.46744 0 0 0 -0.376,-1.89942 2.49606,2.49606 0 0 0 -1.62109,-1.06445 l -0.68329,-0.12421 43.75153,-52.77862 18.82629,9.69879 v 9.39056 a 2.481,2.481 0 0 0 2.334,2.46643 v 23.808 a 2.49856,2.49856 0 0 0 2.5,2.5 h 10.957 a 2.49857,2.49857 0 0 0 2.5,-2.5 v -23.808 a 2.48094,2.48094 0 0 0 2.334,-2.46643 v -7.45758 l 24.5874,-10.574 32.91474,34.42932 c 1.008,1.68884 2.067,3.34656 3.15826,4.98444 l -18.28033,29.33533 -1.40839,-1.05926 a 2.49668,2.49668 0 0 0 -3.501,0.49316 2.46912,2.46912 0 0 0 -0.46966,1.68335 l -3.37311,3.84888 -0.40039,0.0781 a 2.49714,2.49714 0 0 0 -1.52344,0.93262 l -1.5625,2.03125 a 2.486,2.486 0 0 0 -0.51758,1.52344 v 3.51562 a 2.50994,2.50994 0 0 0 0.94239,1.958 l 4.21875,3.35938 a 2.506,2.506 0 0 0 1.55761,0.542 h 3.125 a 2.4967,2.4967 0 0 0 2.03125,-1.04 l 1.79688,-2.5 a 2.52353,2.52353 0 0 0 0.46875,-1.46 v -0.77146 l 2.702,-4.35516 c 0.0659,0.005 0.12237,0.0632 0.18859,0.0632 a 2.5,2.5 0 0 0 1.50391,-4.49707 l -1.76361,-1.32629 17.39258,-27.91077 a 119.79319,119.79319 0 0 0 27.42069,26.90976 l -0.0809,0.13977 a 2.50109,2.50109 0 0 0 -0.23437,1.96777 c 0.18554,0.62012 1.23046,3.78418 3.77441,5.25879 l 2.793,1.61133 a 2.50508,2.50508 0 0 0 3.18847,-0.59082 c 0.0427,-0.0516 0.55542,-0.70282 1.207,-1.683 q 0.98968,0.55434 1.991,1.08825 c -0.55023,1.09833 -0.85327,1.87317 -0.8786,1.93756 a 2.50356,2.50356 0 0 0 1.084,3.05176 l 2.80273,1.61621 a 7.77368,7.77368 0 0 0 3.88672,0.92774 11.31227,11.31227 0 0 0 2.54394,-0.28809 2.51328,2.51328 0 0 0 1.58692,-1.18164 l 0.3949,-0.69244 a 119.269,119.269 0 0 0 95.6018,-2.64618 2.49808,2.49808 0 0 0 1.54236,1.13647 11.31239,11.31239 0 0 0 2.54395,0.28809 7.789,7.789 0 0 0 3.88183,-0.92285 l 2.80762,-1.6211 a 2.50355,2.50355 0 0 0 1.084,-3.05175 c -0.0241,-0.0614 -0.30365,-0.77057 -0.802,-1.78193 q 0.97733,-0.59371 1.94061,-1.20605 c 0.6366,0.95428 1.13861,1.59424 1.18073,1.6452 a 2.50509,2.50509 0 0 0 3.18848,0.59082 l 2.80273,-1.61621 c 2.53418,-1.46973 3.5791,-4.63379 3.76465,-5.25391 a 2.50114,2.50114 0 0 0 -0.23438,-1.96777 l -0.40771,-0.697 a 119.77582,119.77582 0 0 0 21.4925,-22.06666 l 20.15808,24.09149 -1.48712,1.11847 a 2.5,2.5 0 0 0 1.50391,4.49707 c 0.0656,0 0.123,-0.058 0.1886,-0.0632 l 2.702,4.35516 v 0.77149 a 2.52353,2.52353 0 0 0 0.46875,1.46 l 1.79688,2.5 a 2.4967,2.4967 0 0 0 2.03125,1.04 h 3.125 a 2.506,2.506 0 0 0 1.55762,-0.542 l 4.21875,-3.35938 a 2.51,2.51 0 0 0 0.94238,-1.958 v -3.51562 a 2.486,2.486 0 0 0 -0.51752,-1.52351 l -1.5625,-2.03125 a 2.49714,2.49714 0 0 0 -1.52344,-0.93262 l -3.77868,-4.02343 a 2.45579,2.45579 0 0 0 -0.46448,-1.58692 2.49112,2.49112 0 0 0 -3.501,-0.49316 l -1.69464,1.27441 -21.14868,-25.27527 a 118.98856,118.98856 0 0 0 20.35889,-57.89062 2.44636,2.44636 0 0 0 1.28326,-0.672 10.36611,10.36611 0 0 0 2.52319,-5.01678 l 17.83814,7.6715 v 4.3277 a 2.48094,2.48094 0 0 0 2.334,2.46643 v 44.95545 a 2.49857,2.49857 0 0 0 2.5,2.5 h 10.957 a 2.49856,2.49856 0 0 0 2.5,-2.5 v -44.95544 a 2.481,2.481 0 0 0 2.334,-2.46643 v -4.328 l 21.62567,-9.30237 43.91205,52.645 -0.0494,0.009 a 2.49606,2.49606 0 0 0 -1.62109,1.06445 2.46744,2.46744 0 0 0 -0.376,1.89942 l 2.03125,9.84375 a 2.49834,2.49834 0 0 0 2.44629,1.99707 h 10.9375 a 2.49881,2.49881 0 0 0 2.334,-3.39356 z M 11.39989,385.42924 H 6.13622 l 2.3291,-6.07422 4.03808,0.73242 z m 82.03613,-46.11817 h -10.625 v -8.50586 h 10.625 z M 83.34813,51.469084 l 4.45313,2.932142 -0.80079,5.37602 A 27.08007,27.08007 0 0 0 82.5327,54.140026 Z M 82.02489,62.453008 C 64.99852,57.035468 49.85204,49.357256 39.37352,40.83427 29.65672,32.926528 25.12059,25.13109 26.93211,19.445026 28.73881,13.761412 36.94681,10.02116 49.44681,9.1837557 62.91361,8.2731114 79.72025,10.76823 96.7515,16.188184 c 17.02637,5.4175 32.17285,13.095752 42.65137,21.618734 9.71679,7.907742 14.25293,15.703184 12.4414,21.389248 -3.21014,10.08396 -30.58746,12.575118 -60.57251,5.79802 l 1.71505,-11.469434 a 2.49911,2.49911 0 0 0 -1.1377,-2.485308 l -4.65821,-2.915012 -2.29919,-1.759738 2.23358,-7.605302 c 0.26459,0.0214 0.53986,0.0681 0.79315,0.0681 a 7.52634,7.52634 0 0 0 0.791,-0.0391 c 2.77344,-0.27588 3.59375,-1.940918 3.81836,-2.641608 0.22461,-0.703124 0.51758,-2.536632 -1.58692,-4.36525 a 11.71434,11.71434 0 0 0 -7.99316,-2.541528 c -2.77344,0.27588 -3.59375,1.940928 -3.81836,2.641608 -0.22461,0.703134 -0.51758,2.536642 1.58691,4.36526 a 9.207,9.207 0 0 0 1.61654,1.092814 l -2.70935,9.224586 -0.0058,0.01 -2.34375,7.656282 a 2.51926,2.51926 0 0 0 0.91309,2.746588 21.25368,21.25368 0 0 1 4.69024,5.729694 c -0.28564,-0.0894 -0.5661,-0.16235 -0.85235,-0.2536 z M 85.62352,290.5864 v 35.21881 h -5.3125 a 2.45958,2.45958 0 0 0 -2.08832,1.20667 l -15.97289,-8.22876 z m 5.47852,74.99909 h -5.957 v -21.27442 h 5.957 z m 7.334,-36.67023 v -0.61005 a 2.49856,2.49856 0 0 0 -2.5,-2.5 h -5.3125 v -35.91644 l 28.71552,30.03693 z m 39.14063,74.7171 a 2.51861,2.51861 0 0 0 -0.376,1.31836 v 0.67871 l -0.58106,0.80567 h -0.9668 l -2.59278,-2.06543 v -1.46 l 0.46387,-0.60059 0.30762,-0.0586 a 2.46844,2.46844 0 0 0 1.4209,-0.81055 l 3.61206,-4.12323 1.79382,1.34918 z m 247.94921,-4.50683 0.77149,0.65918 v 1.46 l -2.59277,2.06543 h -0.9668 l -0.58106,-0.80567 v -0.67871 a 2.5186,2.5186 0 0 0 -0.376,-1.31836 l -3.08167,-4.96643 0.75928,-0.571 0.008,-0.005 0.003,-0.004 1.01959,-0.7666 3.61634,4.12475 a 2.50373,2.50373 0 0 0 1.4209,0.80565 z m 29.209,-88.86231 h -10.62507 v -3.2959 h 10.625 z m -13.125,-8.2959 a 2.45911,2.45911 0 0 0 -2.08832,1.207 l -18.62427,-8.00933 a 2.47739,2.47739 0 0 0 -1.58233,-0.976 c -0.0574,-0.008 -0.63568,-0.0934 -1.52985,-0.16327 -0.0195,-0.784 -0.0485,-1.56341 -0.083,-2.34344 0.92713,-0.0723 1.55915,-0.16235 1.61774,-0.17395 a 2.49709,2.49709 0 0 0 2.09961,-2.46582 v -2.15057 l 25.50293,-24.14307 v 39.21844 z M 320.34032,201.76957 c -0.80567,-0.46387 -1.06934,-0.92041 -0.84961,-1.477 0.0195,-0.0415 0.0391,-0.0854 0.0586,-0.1294 a 20.238,20.238 0 0 1 1.73828,-3.3789 l 0.81543,0.47363 a 3.65066,3.65066 0 0 1 1.10352,1.438 l -1.98242,3.45215 a 3.16385,3.16385 0 0 1 -0.88379,-0.37848 z m -12.22168,-11.78711 a 3.50342,3.50342 0 0 1 1.792,0.23682 l 0.81543,0.47119 a 20.60923,20.60923 0 0 1 -2.05566,3.18848 c -0.0439,0.0562 -0.083,0.1123 -0.12207,0.17089 -0.10743,0.15869 -0.54688,0.60059 -1.665,-0.0464 -0.47364,-0.27344 -0.71289,-0.50293 -0.78614,-0.51026 z m -2.13867,-4.73389 a 2.51685,2.51685 0 0 0 -1.58692,1.18409 l -0.20141,0.35339 a 117.91129,117.91129 0 0 0 -29.52027,-7.98218 v -3.39264 c 8.9148,3.2016 22.66144,5.93842 36.958,5.93842 2.33887,0 4.69727,-0.0732 7.0459,-0.22949 14.64355,-0.97657 28.2959,-4.20411 38.44238,-9.09424 10.51911,-5.07019 16.16669,-11.48377 16.08063,-18.12073 0.44006,-1.73431 3.12347,-13.61053 -3.86749,-19.01276 0.54474,0.0824 1.06872,0.16632 1.64917,0.24628 a 237.31722,237.31722 0 0 0 31.1914,1.80664 c 1.56067,0 3.16162,-0.032 4.751,-0.0543 v 46.07605 c -8.90076,-0.57861 -22.63336,-1.13892 -34.83887,-1.13892 -36.03515,0 -54.78027,3.02979 -55.55664,3.15918 a 2.46882,2.46882 0 0 0 -2.02972,2.1048 l -2.08649,-1.20148 c -2.53419,-1.46728 -5.80083,-0.79102 -6.43067,-0.64209 z M 263.34325,95.5049 a 4.60938,4.60938 0 1 1 4.60937,4.6094 4.61317,4.61317 0 0 1 -4.60937,-4.6094 z m 14.025,-1.915898 9.93988,-1.035774 a 3.22463,3.22463 0 0 1 2.06055,0.583504 2.47993,2.47993 0 0 1 0.57617,1.857914 2.28193,2.28193 0 0 1 -0.47363,1.638188 3.2668,3.2668 0 0 1 -2.28516,0.29053 l -9.6994,-0.67444 c 0.0195,-0.249944 0.0754,-0.489204 0.0754,-0.744004 a 9.59886,9.59886 0 0 0 -0.19383,-1.915918 z m 88.64105,45.023828 c 1.93116,1.30249 2.72065,3.73047 2.96662,6.26587 -4.15558,-4.16168 -11.14716,-7.46673 -20.04181,-9.58893 v -4.39331 a 59.05451,59.05451 0 0 1 17.07515,7.71637 z m -91.33789,10.44586 c 9.41712,-5.88134 24.61487,-10.03112 41.12793,-11.12945 30.14649,-1.98487 51.83594,6.65771 52.43653,15.69336 0.30761,4.61426 -4.53614,9.68017 -13.291,13.89892 -9.58008,4.61914 -22.583,7.67578 -36.60156,8.6084 -16.27777,1.08185 -33.84125,-2.17773 -43.67188,-6.10962 z m 69.2627,-14.80377 a 119.96908,119.96908 0 0 0 -28.4668,-1.31592 124.26221,124.26221 0 0 0 -25.77148,4.386 v -4.81476 a 109.607,109.607 0 0 1 32.55371,-5.018 103.22158,103.22158 0 0 1 21.68457,2.17163 z m -59.2383,4.64691 a 69.63762,69.63762 0 0 0 -10.02442,4.34327 v -4.26546 a 37.57436,37.57436 0 0 1 6.32324,-3.40149 c 1.15754,-0.46753 2.44446,-0.92041 3.70118,-1.377 z m 134.99021,84.93561 a 12.56742,12.56742 0 0 1 -4.66309,0.89844 c -0.38085,-0.061 -1.665,-0.36865 -2.82226,-0.64453 -0.0964,-0.0226 -0.18372,-0.0424 -0.27832,-0.0644 v -28.86532 c 1.63635,0.45227 3.58185,1.11114 5.09766,1.63483 1.19537,0.4129 2.09808,0.71594 2.87109,0.9552 v 26.02813 c -0.0696,0.0244 -0.13429,0.0323 -0.20508,0.0576 z m -33.04687,7.75391 c -10.47425,-0.12024 -24.6875,-0.59448 -28.855,-0.74158 -0.43824,-0.65674 -0.87342,-1.31409 -1.32477,-1.96228 a 29.87,29.87 0 0 1 9.3692,-2.29126 h 29.84375 a 73.60714,73.60714 0 0 1 11.25,1.46027 v 3.61114 c -5.90544,0.005 -14.53825,-0.004 -20.28318,-0.0763 z m -63.876,-39.72565 -0.958,-0.55267 a 2.47574,2.47574 0 0 0 -2.80426,0.25543 2.43129,2.43129 0 0 0 0.43121,-1.32233 v -0.625 c 4.11408,-0.54687 14.35791,-1.6983 30.07325,-2.33764 v 2.24334 c -1.481,0.21546 -3.07831,0.47058 -4.83887,0.76813 a 93.21851,93.21851 0 0 1 -13.68167,1.66748 c -1.86524,0 -3.25195,-0.0439 -4.43848,-0.083 -1.38485,-0.0464 -2.53566,-0.058 -3.78322,-0.0137 z m 31.74225,-4.762 c 5.33722,-0.16449 11.14166,-0.27558 17.57812,-0.27558 12.25434,0 26.04675,0.56916 34.83887,1.1493 v 1.87011 c -0.75653,0.0623 -1.564,0.13 -2.43164,0.20325 -5.80567,0.49072 -13.75977,1.16211 -19.13086,1.16211 -7.1582,0 -15.88867,-0.82764 -22.26563,-1.43066 -3.757,-0.35706 -6.73645,-0.63263 -8.58886,-0.67963 z m -37.57325,5.64239 a 2.43765,2.43765 0 0 0 1.409,-0.4898 c -0.18036,0.2359 -0.43518,0.60089 -0.78,1.10809 -0.45532,-0.26 -0.914,-0.51392 -1.373,-0.76813 a 2.43914,2.43914 0 0 0 0.74396,0.14988 z m 11.44043,5.43213 c -0.0589,-0.19653 -0.24414,-0.68664 -0.49621,-1.25915 0.89935,0.0235 1.882,0.0433 3.10852,0.0433 4.24316,0 9.69726,-0.92285 14.51172,-1.73828 1.42914,-0.24139 2.76306,-0.46173 4.00879,-0.65277 v 4.50043 a 2.5,2.5 0 0 0 5,0 v -4.96735 c 1.68762,0.0513 4.65149,0.32623 8.11523,0.65582 6.47949,0.6128 15.34668,1.45264 22.73926,1.45264 5.58105,0 13.65723,-0.68115 19.55078,-1.1792 0.71686,-0.0604 1.369,-0.115 2.01172,-0.16846 v 28.09479 a 72.93844,72.93844 0 0 0 -11.25,-1.36627 H 365.8286 c -3.27881,0 -8.69782,1.44714 -12.36267,3.16406 a 119.73161,119.73161 0 0 0 -25.32807,-24.614 l 3.1e-4,-3.1e-4 a 2.49522,2.49522 0 0 0 0.23437,-1.96524 z m 58.208,38.41309 c 2.31873,0.0278 5.13184,0.0436 8.02124,0.0546 l -0.59448,1.293 a 287.97269,287.97269 0 0 1 -32.34772,-0.86212 c -0.21576,-0.37048 -0.42389,-0.74554 -0.64361,-1.11389 6.1102,0.20027 17.06662,0.53138 25.56454,0.62843 z m -13.87454,6.21133 -5.05951,5.99335 q -1.45614,-3.28537 -3.10516,-6.47553 c 2.78844,0.20625 5.52826,0.37318 8.16467,0.48218 z m 6.37329,0.19653 c 2.20917,0.043 4.30939,0.0668 6.18775,0.0668 6.26464,0 10.40039,-0.18555 10.48339,-0.19043 a 2.48692,2.48692 0 0 0 2.15332,-1.4502 l 2.19269,-4.76471 c 1.89148,0.003 3.73657,0.004 5.40985,0.004 h 1.416 v 19.19678 l -27.01536,25.57519 a 13.0988,13.0988 0 0 0 -1.15845,-1.51519 2.49346,2.49346 0 0 0 -1.81152,-0.78125 h -0.005 l -0.433,0.002 a 118.3693,118.3693 0 0 0 -6.69678,-25.15473 z m -7.406,41.15082 4.05273,-0.01 a 3.6924,3.6924 0 0 1 0.69336,1.6748 v 0.94238 a 21.01669,21.01669 0 0 1 -3.79395,-0.18554 c -0.0684,-0.01 -0.1416,-0.0195 -0.21,-0.0244 -0.18554,-0.01 -0.791,-0.15137 -0.791,-1.46 3e-5,-0.55181 0.0782,-0.87403 0.0489,-0.93751 z m 4.74609,14.79981 v 0.94238 a 3.7279,3.7279 0 0 1 -0.71777,1.7041 l -3.90625,0.1123 a 2.367,2.367 0 0 1 -0.1709,-1.08886 c 0,-0.92774 0.26367,-1.38184 0.85937,-1.46973 a 1.31389,1.31389 0 0 0 0.13672,-0.0195 19.02506,19.02506 0 0 1 3.79883,-0.18071 z m 43.47168,-68.76465 v 1.43066 c -1.828,0.0143 -4.5932,0.0336 -7.96875,0.0479 v -2.5003 a 14.88345,14.88345 0 0 0 2.8125,0.553 17.57214,17.57214 0 0 0 5.48828,-0.78125 2.52809,2.52809 0 0 0 -0.33203,1.24993 z m 0,-41.0376 v 2.49268 a 2.341,2.341 0 0 0 0.20508,0.92529 c -0.49317,-0.166 -0.9961,-0.33936 -1.44532,-0.49561 a 65.35491,65.35491 0 0 0 -6.72851,-2.05719 v -1.88659 c 3.71646,0.3866 6.37115,0.76197 7.96875,1.02137 z m 41.25,-64.68506 c -3.41644,2.70508 -21.60034,6.53687 -49.21875,7.33 v -6.17035 a 2.5,2.5 0 0 0 -5,0 v 6.27838 c -27.20154,0.39673 -45.3122,-2.59186 -48.82324,-5.12115 3.50586,-2.77588 22.53418,-6.74805 51.377,-7.395 28.9257,-0.64459 48.03706,2.46577 51.66499,5.07807 z m -53.09082,-10.80085 v -0.32959 a 7.371,7.371 0 0 1 2.73926,-0.0903 v 0.26611 a 2.46705,2.46705 0 0 0 0.17181,0.853 c -0.53284,0.009 -1.05743,0.0113 -1.59271,0.0235 -0.39643,0.009 -0.94971,0.0247 -1.47186,0.0391 a 2.43952,2.43952 0 0 0 0.1535,-0.76175 z M 364.20751,79.791946 a 18.81148,18.81148 0 0 1 1.19628,4.91945 c -0.0781,-0.10253 -0.16113,-0.21 -0.24414,-0.31982 A 54.16551,54.16551 0 0 0 350.04247,70.30216 l -0.21,0.34211 v -3.519912 c 8.61698,5.0046 13.61179,10.70835 14.37504,12.667588 z m -19.375,-15.28265 v 3.229682 c -8.34748,-3.966386 -18.06061,-6.081864 -29.07715,-6.081864 a 82.37431,82.37431 0 0 0 -26.24024,4.70247 v -3.795796 a 91.04057,91.04057 0 0 1 28.02735,-3.992626 64.43054,64.43054 0 0 1 27.29004,5.938134 z m -60.31739,-0.0885 v 3.904436 c -0.59906,0.25817 -1.19934,0.51483 -1.792,0.790404 a 113.02971,113.02971 0 0 0 -16.23016,9.241976 2.40509,2.40509 0 0 0 -0.46357,-0.18249 c 1.72823,-2.947702 7.32454,-9.111666 18.48573,-13.754326 z m -16.68457,19.122076 a 106.53783,106.53783 0 0 1 16.68457,-9.73576 v 6.463348 a 2.5,2.5 0 0 0 5,0 v -8.649036 a 77.51194,77.51194 0 0 1 26.24024,-4.96431 c 11.21582,0 20.98358,2.222908 29.07715,6.567708 v 7.045628 a 2.5,2.5 0 0 0 5,0 v -4.110106 a 50.94919,50.94919 0 0 1 11.35742,11.275674 c 0.55877,0.726004 1.023,1.296394 1.4685,1.792308 l 1.716,29.950604 c -6.83991,1.80451 -11.63666,4.27613 -11.60553,7.67487 -1.16242,-0.376 -2.312,-0.7663 -3.51746,-1.09253 a 2.4073,2.4073 0 0 0 -0.31738,-0.0192 v -6.51153 a 2.5,2.5 0 0 0 -5,0 v 5.3302 a 109.48533,109.48533 0 0 0 -21.68457,-2.06848 114.45252,114.45252 0 0 0 -32.55371,4.834 v -5.42969 a 2.5,2.5 0 0 0 -5,0 v 6.97388 c -1.95465,0.67413 -3.82691,1.36871 -5.56641,2.06909 a 39.27727,39.27727 0 0 0 -4.458,2.16583 v -30.7492 a 9.68939,9.68939 0 0 0 1.02936,-1.21918 l 10.83588,0.73517 a 8.26734,8.26734 0 0 0 1.499,0.12939 7.21274,7.21274 0 0 0 4.60449,-1.5039 6.75178,6.75178 0 0 0 2.30471,-5.503004 7.18276,7.18276 0 0 0 -2.23145,-5.57375 8.11834,8.11834 0 0 0 -5.8789,-1.843268 l -11.99616,1.250304 a 9.56728,9.56728 0 0 0 -6.88568,-2.932442 c -0.0418,0 -0.0803,0.0116 -0.12207,0.0122 z m -1.59668,21.397468 a 8.57821,8.57821 0 0 0 3.4375,0 v 73.28308 c -1.14227,-0.10559 -2.28882,-0.18921 -3.4375,-0.26215 z m -97.74414,24.72351 a 103.27867,103.27867 0 0 1 21.68457,-2.17163 109.607,109.607 0 0 1 32.55371,5.018 v 4.81476 a 124.26221,124.26221 0 0 0 -25.77148,-4.386 119.94918,119.94918 0 0 0 -28.4668,1.31073 z m 59.23828,4.53735 c 1.25672,0.45654 2.54364,0.90942 3.70118,1.377 a 37.63151,37.63151 0 0 1 6.32324,3.39936 v 4.26758 a 69.63859,69.63859 0 0 0 -10.02442,-4.34327 z m 7.20948,-37.947406 -10.00733,0.71106 a 3.002,3.002 0 0 1 -1.96777,-0.32715 2.241,2.241 0 0 1 -0.4834,-1.643068 2.47993,2.47993 0 0 1 0.57617,-1.857914 3.3193,3.3193 0 0 1 2.0166,-0.588384 l 9.98383,1.040654 a 9.59886,9.59886 0 0 0 -0.19379,1.915898 c 1e-5,0.25636 0.0559,0.497454 0.0757,0.748914 z m 4.92431,-0.748904 a 4.60938,4.60938 0 1 1 4.60938,4.6094 4.61317,4.61317 0 0 1 -4.60937,-4.60939 z m 4.60938,-9.60941 a 9.567,9.567 0 0 0 -6.88568,2.932142 l -12.01081,-1.252454 a 8.13924,8.13924 0 0 0 -5.86426,1.845718 7.18279,7.18279 0 0 0 -2.23144,5.57375 6.75178,6.75178 0 0 0 2.30469,5.502954 7.25669,7.25669 0 0 0 4.59961,1.51367 5.98155,5.98155 0 0 0 1.19629,-0.0977 l 11.145,-0.77453 a 9.70491,9.70491 0 0 0 1.02783,1.217 v 30.74768 a 39.34925,39.34925 0 0 0 -4.458,-2.16431 c -1.7395,-0.70038 -3.61206,-1.395 -5.56641,-2.06909 v -6.97388 a 2.5,2.5 0 0 0 -5,0 v 5.42969 a 114.45252,114.45252 0 0 0 -32.55371,-4.834 109.55994,109.55994 0 0 0 -21.68457,2.06878 v -5.3305 a 2.5,2.5 0 0 0 -5,0 v 6.51153 a 2.387,2.387 0 0 0 -0.3125,0.0192 68.1323,68.1323 0 0 0 -15.44006,6.19415 l 2.03522,-42.734724 c 0.44342,-0.494384 0.90576,-1.062624 1.46148,-1.784678 a 50.94919,50.94919 0 0 1 11.35742,-11.275674 v 4.110126 a 2.5,2.5 0 0 0 5,0 v -7.045628 c 8.09357,-4.3448 17.86133,-6.567708 29.07715,-6.567708 a 77.51194,77.51194 0 0 1 26.24024,4.96431 v 8.649036 a 2.5,2.5 0 0 0 5,0 v -6.463348 a 106.51056,106.51056 0 0 1 16.68457,9.73576 v 2.364808 c -0.0418,-5.5e-4 -0.0803,-0.0121 -0.12206,-0.0121 z m 2.03064,-7.742028 a 2.422,2.422 0 0 0 -0.571,0.20416 113.199,113.199 0 0 0 -16.22528,-9.239536 c -0.59662,-0.277404 -1.1972,-0.533754 -1.79687,-0.792544 v -3.945326 c 11.51551,4.75679 17.06574,11.098984 18.59314,13.773246 z M 222.90868,62.565008 v 3.794576 a 82.37431,82.37431 0 0 0 -26.24024,-4.70247 c -11.01654,0 -20.72967,2.115478 -29.07715,6.081864 v -3.229682 a 64.43054,64.43054 0 0 1 27.29,-5.938134 91.21813,91.21813 0 0 1 28.02739,3.993846 z m -74.69239,17.226938 c 0.76325,-1.959238 5.75806,-7.663028 14.375,-12.667588 v 3.519912 l -0.21,-0.34211 a 54.16551,54.16551 0 0 0 -15.11714,14.089416 c -0.0586,0.0806 -0.12207,0.16113 -0.18067,0.23926 a 16.42379,16.42379 0 0 1 1.13281,-4.83889 z m -4.78912,65.104764 c 0.22278,-2.49054 0.99457,-4.93958 2.98737,-6.28388 a 58.8991,58.8991 0 0 1 17.07519,-7.71515 v 4.3866 c -8.91235,2.12555 -15.91034,5.44036 -20.06256,9.61243 z m 50.65338,31.23321 c -14.01855,-0.93262 -27.02148,-3.98926 -36.60156,-8.6084 -8.75488,-4.21875 -13.59863,-9.28466 -13.291,-13.89892 0.60059,-9.03565 22.34864,-17.70264 52.43653,-15.69336 16.51336,1.09833 31.70654,5.24841 41.12793,11.12976 v 20.96164 c -9.82485,3.93155 -27.36697,7.18869 -43.6719,6.10928 z m 48.67188,-71.18957 a 8.57821,8.57821 0 0 0 3.4375,0 v 73.38529 c -1.15082,0.11688 -2.2934,0.27405 -3.4375,0.42389 z m -36.38672,86.38 1.99707,3.44483 a 3.27954,3.27954 0 0 1 -0.77149,0.57617 c -0.80566,0.47119 -1.32812,0.459 -1.69921,-0.007 -0.0293,-0.0391 -0.0586,-0.0781 -0.0879,-0.11474 a 20.86785,20.86785 0 0 1 -2.05567,-3.19336 l 0.81543,-0.46875 a 3.59758,3.59758 0 0 1 1.80176,-0.23682 z m -11.38672,10.30029 c 0.22461,0.56153 -0.0342,1.02051 -0.83984,1.48682 a 3.39682,3.39682 0 0 1 -0.86426,0.376 l -1.99707,-3.45459 a 3.66247,3.66247 0 0 1 1.09863,-1.43555 l 0.81543,-0.47119 a 20.31029,20.31029 0 0 1 1.7334,3.37646 c 0.005,0.007 0.0488,0.11473 0.0537,0.12205 z m -50.874,90.57618 a 19.80207,19.80207 0 0 1 -3.79883,0.18066 v -0.94238 a 3.72782,3.72782 0 0 1 0.71777,-1.7041 l 3.90625,-0.11231 a 2.36711,2.36711 0 0 1 0.1709,1.08887 c 0,0.92773 -0.26367,1.38183 -0.85937,1.46972 a 1.31662,1.31662 0 0 0 -0.13674,0.0195 z m -29.51661,-24.19739 a 44.44923,44.44923 0 0 1 11.72364,-1.75965 h 10.44433 a 28.94947,28.94947 0 0 1 6.22528,0.71412 c -0.38971,1.49719 -0.73181,3.00842 -1.06353,4.52362 -9.47327,0.71228 -19.45069,0.69793 -27.32972,0.48248 z m 29.74122,-5.8725 a 33.80763,33.80763 0 0 0 -7.666,-0.88715 H 126.312 a 45.95268,45.95268 0 0 0 -11.72364,1.60615 v -2.8122 a 2.5,2.5 0 0 0 -5,0 v 4.0387 a 2.43779,2.43779 0 0 0 -0.94085,0.40283 2.40188,2.40188 0 0 0 -0.5484,-0.11048 18.43539,18.43539 0 0 1 -5.84473,-0.957 c -0.0586,-0.0177 -0.10345,-0.0235 -0.16113,-0.0406 v -65.239 c 0.59051,-0.24719 1.185,-0.50842 1.90918,-0.85327 1.69433,-0.8081 4.01367,-1.91406 5.27832,-1.91406 0.0821,0 0.2124,0.007 0.30761,0.009 v 5.04 a 2.5,2.5 0 0 0 5,0 v -4.73328 c 0.1944,0.014 0.365,0.0263 0.56641,0.0409 5.43457,0.39551 13.65234,0.99121 21.46973,0.99121 7.39258,0 16.25976,-0.83984 22.73926,-1.45263 2.1817,-0.20752 4.1452,-0.39032 5.75683,-0.51605 v 5.66986 a 2.5,2.5 0 0 0 5,0 v -5.6662 c 1.74835,0.20416 3.98285,0.57586 6.34766,0.97626 3.44238,0.58074 7.20062,1.20605 10.62286,1.52313 a 11.63488,11.63488 0 0 0 -0.98419,2.27813 2.48357,2.48357 0 0 0 0.23437,1.96045 l 0.21,0.35981 a 119.3734,119.3734 0 0 0 -42.22171,60.28563 z m 53.29069,-67.71029 a 2.47231,2.47231 0 0 0 -2.31415,-1.89758 c -0.16144,-0.004 -0.33692,-0.003 -0.49988,-0.007 a 2.43236,2.43236 0 0 0 -1.68518,-0.0238 c -0.70923,-0.0104 -1.39984,-0.0302 -2.12158,-0.0302 a 93.09233,93.09233 0 0 1 -13.69629,-1.66993 c -2.75147,-0.466 -5.21362,-0.87738 -7.18262,-1.07727 v -2.05721 c 8.0954,0.48859 18.84308,1.30646 28.03467,2.56928 a 2.48667,2.48667 0 0 0 0.0268,1.67114 c 0.0238,0.0613 0.29511,0.74921 0.77759,1.73279 -0.44922,0.25879 -0.89355,0.52523 -1.33941,0.78979 z m -39.67743,-7.37121 h 0.0171 c 0.27984,0.0104 3.01635,0.11108 7.18017,0.32776 -0.002,0.0342 -0.0195,0.0626 -0.0195,0.097 v 2.25647 c -1.70624,0.12635 -3.78967,0.31922 -6.23047,0.55115 -6.37695,0.603 -15.10742,1.43066 -22.26562,1.43066 -7.63672,0 -15.74707,-0.58837 -21.1084,-0.979 -0.3302,-0.0241 -0.61615,-0.0443 -0.92774,-0.0665 v -2.39715 c 7.99012,-0.67017 19.54895,-1.27167 35.3125,-1.27167 2.78321,6e-5 5.45895,0.0171 8.042,0.0513 z m -55.84961,5.10986 V 189.709 c 1.5332,-0.2481 4.00238,-0.60119 7.49511,-0.97107 v 1.63117 c -0.0946,-0.002 -0.22552,-0.008 -0.30761,-0.008 -2.334,0 -4.92676,1.20849 -7.24121,2.30957 a 2.57927,2.57927 0 0 0 0.0537,-0.51512 z m -0.4541,76.28174 a 22.49293,22.49293 0 0 0 6.46,0.92773 2.43514,2.43514 0 0 0 1.37634,-0.46783 c 0.0372,0.009 0.0754,0.0134 0.11291,0.0208 v 2.87262 c -3.18206,-0.13 -5.7843,-0.27649 -7.49511,-0.38452 v -1.57227 a 2.3099,2.3099 0 0 0 -0.45414,-1.39646 z m 14.98046,9.88281 -0.61035,-1.326 c 2.50458,0.0583 5.14893,0.10041 7.94434,0.10041 5.43945,0 11.26343,-0.19379 16.97357,-0.58289 -0.0861,0.49378 -0.16632,0.98908 -0.246,1.48438 a 140.24753,140.24753 0 0 1 -24.06156,0.32412 z m 28.43262,28.85742 -4.05273,0.01 a 3.69238,3.69238 0 0 1 -0.69336,-1.6748 v -0.94239 a 20.59747,20.59747 0 0 1 3.79394,0.18555 c 0.0684,0.01 0.14161,0.0195 0.21,0.0244 0.18555,0.01 0.791,0.15137 0.791,1.46 -2e-5,0.55174 -0.0781,0.87401 -0.0488,0.93748 z m 51.36231,90.874 -0.81055,-0.46875 a 3.69546,3.69546 0 0 1 -1.1084,-1.44531 l 1.98731,-3.45215 a 3.09124,3.09124 0 0 1 0.8789,0.38086 c 0.80567,0.459 1.06446,0.918 0.84473,1.47461 -0.0195,0.0439 -0.0391,0.0879 -0.0586,0.13671 a 20.18275,20.18275 0 0 1 -1.73339,3.37408 z m 13.16894,6.80176 a 3.91181,3.91181 0 0 1 -1.79687,-0.23926 l -0.81055,-0.46875 a 20.014,20.014 0 0 1 2.05566,-3.18848 c 0.005,-0.01 0.0733,-0.10254 0.083,-0.1123 0.3711,-0.46875 0.89356,-0.47852 1.7041,-0.0147 0.47852,0.27832 0.71778,0.50781 0.78614,0.51269 z m 105.19533,-3.61812 a 3.85366,3.85366 0 0 1 -1.79687,0.23438 l -1.99707,-3.44727 a 3.17478,3.17478 0 0 1 0.7666,-0.57129 c 0.81055,-0.47851 1.333,-0.459 1.69922,0.005 l 0.0879,0.11718 a 20.014,20.014 0 0 1 2.05566,3.18848 z m 12.19727,-7.041 -0.82031,0.47363 a 20.5725,20.5725 0 0 1 -1.7334,-3.374 c -0.005,-0.01 -0.0488,-0.11719 -0.0537,-0.127 -0.22949,-0.56152 0.0293,-1.02051 0.83984,-1.48926 a 3.31769,3.31769 0 0 1 0.85938,-0.37109 l 2.002,3.45215 a 3.64708,3.64708 0 0 1 -1.09382,1.43556 z m 3.01666,-7.91046 a 4.36484,4.36484 0 0 0 -2.22076,-1.75263 6.13786,6.13786 0 0 0 -5.06348,0.81543 6.06262,6.06262 0 0 0 -2.91015,7.84668 c 0.0427,0.10834 0.097,0.19623 0.14129,0.303 q -1.08673,0.6926 -2.18933,1.35986 c -0.0861,-0.11322 -0.16266,-0.22705 -0.25177,-0.33966 a 6.77077,6.77077 0 0 0 -11.48926,2.57813 4.40844,4.40844 0 0 0 0.60059,3.31543 l 0.17883,0.31067 a 114.25008,114.25008 0 0 1 -90.58989,2.60229 4.45953,4.45953 0 0 0 0.36224,-2.84454 6.76624,6.76624 0 0 0 -11.48924,-2.57816 c -0.05,0.0632 -0.0922,0.12726 -0.14129,0.19074 q -1.1499,-0.60975 -2.283,-1.24726 c 0.0388,-0.0943 0.087,-0.1712 0.12451,-0.26672 a 6.7677,6.7677 0 0 0 -7.97363,-8.66211 4.41492,4.41492 0 0 0 -2.57325,2.17773 l -0.0604,0.10437 A 114.72519,114.72519 0 0 1 164.13557,361.7244 c -0.011,-0.0162 -0.0226,-0.0314 -0.0342,-0.0476 a 113.798,113.798 0 0 1 -18.9508,-49.512 4.536,4.536 0 0 0 3.12927,-1.13006 6.76669,6.76669 0 0 0 -3.51562,-11.23535 c -0.19806,-0.0296 -0.39,-0.0443 -0.58594,-0.0681 -0.0198,-0.84442 -0.0546,-1.6861 -0.0555,-2.53418 0.22369,-0.0253 0.41534,-0.0116 0.64148,-0.0442 a 6.7708,6.7708 0 0 0 3.51559,-11.24026 4.37144,4.37144 0 0 0 -3.17871,-1.14258 l -0.28687,-3.1e-4 a 114.20022,114.20022 0 0 1 44.306,-78.60016 4.41665,4.41665 0 0 0 2.45544,2.0868 4.8047,4.8047 0 0 0 1.54785,0.25146 7.08213,7.08213 0 0 0 3.51563,-1.06933 6.06723,6.06723 0 0 0 2.91015,-7.8418 c -0.0568,-0.14374 -0.12848,-0.26123 -0.18768,-0.40222 q 1.09405,-0.66285 2.20367,-1.30036 c 0.0949,0.12574 0.18036,0.25208 0.27893,0.37689 a 5.91465,5.91465 0 0 0 4.7461,2.41211 6.977,6.977 0 0 0 3.501,-1.01074 6.07985,6.07985 0 0 0 3.24219,-3.977 4.40263,4.40263 0 0 0 -0.5957,-3.32031 l -0.0565,-0.098 a 114.26857,114.26857 0 0 1 88.98956,-1.12183 4.59565,4.59565 0 0 0 -0.52978,3.20221 6.09412,6.09412 0 0 0 3.24219,3.97705 6.977,6.977 0 0 0 3.501,1.01074 5.91546,5.91546 0 0 0 4.7461,-2.41211 c 0.11139,-0.14068 0.20813,-0.28289 0.31463,-0.4245 0.74494,0.40406 1.48316,0.81971 2.218,1.23993 -0.076,0.177 -0.16571,0.32624 -0.23773,0.50782 a 6.06809,6.06809 0 0 0 2.915,7.84423 7.082,7.082 0 0 0 3.51562,1.06934 4.80466,4.80466 0 0 0 1.54785,-0.25146 4.39026,4.39026 0 0 0 2.57325,-2.17774 l 0.14373,-0.24811 a 114.52927,114.52927 0 0 1 45.82367,74.71619 4.35543,4.35543 0 0 0 -2.99865,1.08368 6.76669,6.76669 0 0 0 3.51562,11.23535 c 0.2591,0.0385 0.47943,0.0226 0.73517,0.0507 0.0394,0.83191 0.0674,1.66718 0.0891,2.504 -0.27405,0.0287 -0.54565,0.0519 -0.82428,0.0919 a 6.7708,6.7708 0 0 0 -3.5156,11.24024 4.62854,4.62854 0 0 0 2.88086,1.16211 1.8282,1.8282 0 0 0 0.29785,-0.0195 l 0.816,6.1e-4 a 114.18935,114.18935 0 0 1 -42.4478,79.7256 z m 76.45107,-28.59834 v -42.42188 h 5.957 v 42.42188 z m 12.87934,-54.51111 a 2.45881,2.45881 0 0 0 -2.08832,-1.20667 h -5.3125 v -38.12713 l 26.09985,31.29028 z m 70.41656,58.41736 -1.10351,-5.3418 4.03808,-0.73242 2.3291,6.07422 z"
     id="path4"
     inkscape:connector-curvature="0" />
</svg>
