<?xml version="1.0" encoding="UTF-8" standalone="no"?>
<svg
   xmlns:dc="http://purl.org/dc/elements/1.1/"
   xmlns:cc="http://creativecommons.org/ns#"
   xmlns:rdf="http://www.w3.org/1999/02/22-rdf-syntax-ns#"
   xmlns:svg="http://www.w3.org/2000/svg"
   xmlns="http://www.w3.org/2000/svg"
   xmlns:sodipodi="http://sodipodi.sourceforge.net/DTD/sodipodi-0.dtd"
   xmlns:inkscape="http://www.inkscape.org/namespaces/inkscape"
   version="1.1"
   x="0px"
   y="0px"
   viewBox="0 0 86 85"
   xml:space="preserve"
   id="svg52"
   sodipodi:docname="electric_guitar.svg"
   inkscape:version="0.92.3 (2405546, 2018-03-11)"
   width="86"
   height="85"><metadata
     id="metadata58"><rdf:RDF><cc:Work
         rdf:about=""><dc:format>image/svg+xml</dc:format><dc:type
           rdf:resource="http://purl.org/dc/dcmitype/StillImage" /><dc:title></dc:title></cc:Work></rdf:RDF></metadata><defs
     id="defs56" /><sodipodi:namedview
     pagecolor="#ffffff"
     bordercolor="#666666"
     borderopacity="1"
     objecttolerance="10"
     gridtolerance="10"
     guidetolerance="10"
     inkscape:pageopacity="0"
     inkscape:pageshadow="2"
     inkscape:window-width="1366"
     inkscape:window-height="715"
     id="namedview54"
     showgrid="false"
     inkscape:zoom="1.888"
     inkscape:cx="51.059322"
     inkscape:cy="59.322034"
     inkscape:window-x="0"
     inkscape:window-y="25"
     inkscape:window-maximized="1"
     inkscape:current-layer="svg52" /><g
     id="g46"
     transform="translate(-7.059322,-7.470339)"><g
       id="g44"><path
         d="m 42.318684,51.250999 c 0.1474,-0.147399 0.1474,-0.386699 0,-0.534099 -0.0733,-0.0738 -0.169899,-0.110401 -0.267601,-0.110401 -0.0967,0 -0.193398,0.0366 -0.266598,0.110401 -0.147484,0.1474 -0.147484,0.3867 0,0.534099 0.147514,0.148503 0.388698,0.1465 0.534199,0 z"
         id="path2"
         inkscape:connector-curvature="0" /><path
         d="m 32.956882,57.062599 c 0.0198,0.0052 0.0404,0.0048 0.0597,0.0116 0,-0.0012 -6.98e-4,-0.0022 -6.98e-4,-0.0033 0,-0.0193 0.0098,-0.036 0.011,-0.0551 -0.0208,0.0197 -0.0476,0.0294 -0.07,0.0468 z"
         id="path4"
         inkscape:connector-curvature="0" /><path
         d="m 33.266083,56.231998 c 0.0106,0.0543 0.0321,0.105603 0.0321,0.162102 0,0.0067 -0.0036,0.0126 -0.0038,0.0193 0.0595,-0.0582 0.132614,-0.0945 0.2043,-0.132797 -0.0794,-0.0102 -0.156601,-0.0266 -0.232601,-0.0486 z"
         id="path6"
         inkscape:connector-curvature="0" /><path
         d="m 32.762001,57.525002 c -0.06932,0 -0.139618,0.0263 -0.192318,0.0796 -0.106499,0.1064 -0.106499,0.279301 0,0.3857 0.1054,0.1069 0.280201,0.105499 0.3857,0 0.1064,-0.106399 0.1064,-0.2793 0,-0.3857 -0.0527,-0.0533 -0.122997,-0.0796 -0.193382,-0.0796 z"
         id="path8"
         inkscape:connector-curvature="0" /><path
         d="m 32.691685,56.650002 c 0.0684,-0.0684 0.106498,-0.159203 0.106498,-0.255902 0,-0.0962 -0.0381,-0.187 -0.106498,-0.255401 -0.0683,-0.0683 -0.1591,-0.1059 -0.255802,-0.1059 -0.0957,0 -0.1866,0.0376 -0.254883,0.1059 -0.06842,0.0684 -0.106514,0.159202 -0.106514,0.255401 0,0.0967 0.0381,0.1875 0.106514,0.255902 0.137684,0.137199 0.375,0.136199 0.510685,0 z"
         id="path10"
         inkscape:connector-curvature="0" /><path
         d="m 90.040382,14.6929 c 0.158203,0.1573 0.414002,0.1573 0.570298,0 v -5e-4 c 0.0761,-0.0761 0.119102,-0.1772 0.119102,-0.2846 0,-0.1079 -0.043,-0.209 -0.119102,-0.2852 -0.0781,-0.0786 -0.181679,-0.1181 -0.285195,-0.1181 -0.103485,0 -0.207,0.0395 -0.285103,0.1181 -0.157303,0.1568 -0.157303,0.4131 0,0.5703 z"
         id="path12"
         inkscape:connector-curvature="0" /><path
         d="m 19.295185,70.586998 c 0.003,-0.0015 0.0049,-0.002 0.0079,-0.002 0.0273,0 0.0498,0.0684 0.112299,0.148499 0.25,0.314903 0.9394,1.382301 1.138617,2.016105 l 0.09178,0.302201 c 0.1309,0.441398 0.2549,0.858398 0.6563,1.580596 0.498001,0.8965 3.7656,4.147896 4.4951,4.351601 1.480501,0.412499 2.5303,0.882797 3.1201,1.396896 0.2285,0.198304 0.375,0.251999 0.4424,0.266602 l 0.914101,-0.914497 -10.0625,-10.0625 z"
         id="path14"
         inkscape:connector-curvature="0" /><path
         d="m 33.639999,56.771999 c -0.08012,0.0801 -0.124115,0.1861 -0.124115,0.298901 0,0.112801 0.044,0.2187 0.124115,0.298302 0.07909,0.0796 0.185486,0.123497 0.297783,0.123996 0.113301,0 0.218804,-0.0444 0.298901,-0.123996 0.08,-0.0796 0.124,-0.185501 0.124,-0.298302 0,-0.112801 -0.044,-0.2188 -0.124,-0.298901 -0.0801,-0.0796 -0.1856,-0.1235 -0.298901,-0.1235 -0.112297,0 -0.218696,0.0439 -0.297783,0.1235 z"
         id="path16"
         inkscape:connector-curvature="0" /><path
         d="m 91.972,11.3487 c 0.214783,0.082 0.320282,0.0776 0.355484,0.0889 -0.0166,-0.0215 0.0019,-0.1797 -0.0733,-0.585 -0.1347,-0.7187 -0.9043,-1.6709001 -1.110301,-1.8760002 C 90.986679,8.8189001 90.38018,8.2691002 89.19368,7.8111 88.207382,7.4327002 87.554001,7.671 87.44368,7.751 c 0.0058,0.0069 -0.042,0.1978002 0.123001,0.4942002 0.392601,0.7025995 0.086,1.4554996 -0.257797,1.7655998 -0.218705,0.1973 -4.294884,2.9375 -4.817398,3.273 -0.399407,0.2563 -1.614205,1.0356 -1.9599,1.3818 -0.205101,0.2051 -0.466805,0.5708 -0.362305,1.3638 0.137718,1.0468 -0.175797,1.5039 -0.275398,1.6196 L 41.661484,54.846701 c 0.0048,0.239299 0.0097,0.688499 9e-4,1.471702 0.0244,1.9053 -0.4902,3.8233 -1.527302,5.689499 l -0.1367,0.248001 c -0.271499,0.492199 -0.265697,0.5816 -0.124099,0.722698 0.0772,0.0771 0.2598,0.257802 0.499099,0.022 L 81.890884,19.7003 c 0.241295,-0.241701 0.619202,-0.244699 1.444397,-0.2271 0.21872,0.0049 0.448204,0.0088 0.658203,0.0054 0.462899,-0.0088 0.477517,-0.0239 0.613297,-0.1675 l 0.112305,-0.116199 C 85.02858,18.8829 87.504181,15.3409 88.833282,13.4381 c 1.106499,-1.584 1.282303,-1.8321 1.342804,-1.8985 0.285195,-0.313 0.969696,-0.5058 1.795914,-0.1909 z"
         id="path18"
         inkscape:connector-curvature="0" /><path
         d="m 87.358681,18.545999 c 0.152404,0.153302 0.417999,0.1528 0.57032,5e-4 0.15728,-0.157299 0.15728,-0.413099 0,-0.570398 C 87.852882,17.9 87.751282,17.858 87.643883,17.858 c -0.107399,0 -0.209,0.042 -0.285202,0.118101 -0.07709,0.0767 -0.119095,0.177799 -0.119095,0.285198 0,0.107401 0.042,0.208502 0.119095,0.2847 z"
         id="path20"
         inkscape:connector-curvature="0" /><path
         d="m 33.806,52.7496 c 0.189384,-0.189 0.189384,-0.497101 0,-0.686501 -0.09472,-0.0948 -0.218815,-0.142097 -0.342816,-0.142097 -0.125,0 -0.249,0.0473 -0.3437,0.142097 -0.189484,0.1894 -0.189484,0.497501 0,0.686501 0.1894,0.189399 0.497002,0.190399 0.686516,0 z"
         id="path22"
         inkscape:connector-curvature="0" /><path
         d="m 41.093082,63.6954 c -0.03808,0.0395 -0.406299,0.413601 -0.950199,0.421902 -0.0049,0 -0.0107,0 -0.0166,0 -0.245102,0 -0.6045,-0.0767 -0.959004,-0.431702 -0.708999,-0.708999 -0.276397,-1.492199 -0.0439,-1.913101 l 0.137703,-0.2505 c 0.354499,-0.638099 1.434497,-2.579998 1.401298,-5.202598 0.0137,-1.265103 -0.0058,-1.625 -0.0068,-1.6465 l -0.0137,-0.2285 0.164116,-0.160603 3.928783,-3.8223 c -0.732998,-0.7127 -2.502201,-2.316498 -4.0284,-2.775398 -2.209999,-0.664601 -4.274384,-1.045399 -7.122097,1.038601 -1.793001,1.370098 -2.588902,2.5713 -3.290001,3.630798 -0.173901,0.262199 -0.348702,0.558102 -0.545,0.886799 -0.705,1.186001 -1.6709,2.810001 -2.826101,3.5639 l -0.221699,0.145 c -1.229485,0.809601 -1.8477,1.216301 -6.9014,2.272503 -4.674801,0.976998 -8.0674,3.622097 -9.5517,5.590302 -0.8330007,1.1045 -3.4590001,5.132797 -2.2735,10.600098 1.1308994,5.209495 6.749115,10.677803 9.561599,12.841301 3.254801,2.503898 6.602516,4.6968 11.707001,4.015701 2.548799,-0.330605 6.995098,-2.2705 8.901397,-5.5494 1.956002,-3.361306 2.464802,-5.572205 3.579117,-10.416001 l 0.125,-0.541504 c 0.307587,-1.251396 0.934486,-2.438499 1.678684,-3.182098 0.485317,-0.485397 1.870102,-1.378899 3.3359,-2.325203 0.912101,-0.588898 1.774418,-1.144997 2.3232,-1.5439 0.885799,-0.643096 1.471702,-1.4859 1.527401,-2.198295 0.0332,-0.4272 -0.116184,-0.8013 -0.458,-1.143105 -0.598599,-0.599098 -1.266602,-0.797294 -2.0401,-1.026298 -0.868084,-0.257797 -1.852501,-0.549797 -2.787083,-1.484398 -0.0048,0 -0.799816,-0.652302 -0.887718,-1.929703 -0.0199,-0.290997 0.0065,-0.590698 0.0606,-0.895397 z M 29.968084,81.453201 c -0.0859,0.0669 -0.286085,0.196297 -0.5869,0.196297 -0.285183,0 -0.6631,-0.116699 -1.1201,-0.514198 -0.4639,-0.404297 -1.434599,-0.826203 -2.732501,-1.1885 -1.122999,-0.312896 -4.578098,-3.8881 -5.100498,-4.828598 -0.455086,-0.818306 -0.599701,-1.308105 -0.740301,-1.7817 l -0.0869,-0.285705 c -0.151401,-0.480896 -0.7558,-1.426697 -0.969701,-1.697197 -0.3877,-0.4917 -0.415099,-1.101601 -0.0654,-1.451203 l 1.645501,-1.645996 11.476499,11.476601 z m 8.373,-28.574699 c 0.208702,-0.208 0.497917,-0.268303 0.766399,-0.2103 -0.120998,-0.0678 -0.2458,-0.1283 -0.3484,-0.231102 -0.490997,-0.491002 -0.562001,-1.222699 -0.255497,-1.807702 -0.128403,0.064 -0.266003,0.107003 -0.413403,0.107003 -0.0796,0 -0.1529,-0.0261 -0.2281,-0.0452 0.661103,0.826199 0.618401,2.0332 -0.1469,2.7981 -0.360798,0.359901 -0.8209,0.5527 -1.292297,0.596901 0.0533,0.0338 0.110996,0.0579 0.157497,0.104297 0.3428,0.3433 0.3428,0.901402 0,1.244603 -0.171898,0.171398 -0.396499,0.257301 -0.622101,0.257301 -0.225597,0 -0.450199,-0.0859 -0.621997,-0.257301 -0.0667,-0.0667 -0.109402,-0.1465 -0.150101,-0.226403 -0.0749,0.235203 -0.1987,0.453102 -0.3783,0.632702 -0.1702,0.1703 -0.374698,0.2906 -0.595501,0.3671 0.139202,0.0414 0.2715,0.104099 0.3778,0.209999 0.173817,0.174301 0.2705,0.4058 0.2705,0.652401 0,0.246102 -0.09668,0.478001 -0.2705,0.651798 -0.174801,0.174301 -0.406299,0.270501 -0.652401,0.270501 0,0 0,0 -9.99e-4,0 -0.149784,-2.98e-4 -0.288399,-0.0467 -0.4175,-0.113999 -0.0182,0.1693 -0.0807,0.335201 -0.210399,0.4646 -0.150399,0.150902 -0.348599,0.226101 -0.545883,0.226101 -0.198216,0 -0.396515,-0.0752 -0.546917,-0.226101 -0.301699,-0.3013 -0.301699,-0.7915 0,-1.0928 0.0133,-0.0131 0.031,-0.0177 0.04492,-0.0297 -0.161519,-0.0341 -0.314417,-0.0984 -0.433518,-0.217796 -0.163099,-0.162601 -0.253,-0.378902 -0.253,-0.609402 0,-0.229999 0.0899,-0.4463 0.253,-0.608902 0.1458,-0.146499 0.342602,-0.216999 0.542999,-0.231597 -0.151397,-0.244603 -0.2364,-0.525101 -0.2364,-0.8196 0,-0.418502 0.163101,-0.812099 0.458999,-1.108001 0.140301,-0.140198 0.307919,-0.2417 0.485802,-0.315499 -0.113399,-0.048 -0.2206,-0.115299 -0.313,-0.207401 -0.383701,-0.383801 -0.383701,-1.008801 0,-1.393601 0.381802,-0.3792 0.997799,-0.382 1.383301,-0.0068 0.0619,-0.435902 0.252815,-0.856701 0.587498,-1.191403 0.671902,-0.672798 1.687801,-0.785599 2.486999,-0.354099 -0.142299,-0.341499 -0.0762,-0.7495 0.201401,-1.026798 0.3555,-0.3554 0.974602,-0.3554 1.330101,0 0.1777,0.177299 0.276402,0.413597 0.276402,0.6651 0,0.1087 -0.02658,0.2122 -0.0619,0.311699 0.597599,-0.4166 1.456699,-0.3881 1.9818,0.137001 0.1208,0.120597 0.213298,0.2607 0.287399,0.409198 0.0427,-0.105602 0.106701,-0.204502 0.192116,-0.2901 0.342785,-0.342201 0.900383,-0.340801 1.241184,0 0.341816,0.342301 0.341816,0.898999 0,1.241299 -0.170898,0.170902 -0.3955,0.256802 -0.621101,0.256802 -0.224598,0 -0.4492,-0.0859 -0.620083,-0.256802 -0.01952,-0.0196 -0.02661,-0.0454 -0.04382,-0.0662 -0.0434,0.339001 -0.1903,0.653602 -0.435699,0.898701 -0.3027,0.3022 -0.6992,0.453102 -1.096703,0.453102 -0.150997,0 -0.298397,-0.0424 -0.444298,-0.0862 0.0369,0.0263 0.0791,0.0413 0.112301,0.0745 0.158215,0.1577 0.245098,0.367699 0.245098,0.590797 0,0.223603 -0.08688,0.433602 -0.245098,0.591301 -0.163101,0.163102 -0.377003,0.244198 -0.590786,0.244198 -0.213917,0 -0.427814,-0.0811 -0.590916,-0.244198 -0.325199,-0.326198 -0.325199,-0.855899 10e-7,-1.182098 z"
         id="path24"
         inkscape:connector-curvature="0" /><path
         d="m 33.700485,53.667099 c -0.285103,0 -0.5527,0.110802 -0.753902,0.3125 -0.202099,0.201599 -0.3125,0.4692 -0.3125,0.754402 0,0.2846 0.110401,0.552201 0.3125,0.753899 0.402416,0.403301 1.105503,0.403301 1.507801,0 0.202202,-0.201698 0.3125,-0.4693 0.3125,-0.753899 0,-0.285202 -0.110298,-0.552803 -0.3125,-0.754402 -0.2011,-0.201698 -0.468701,-0.3125 -0.753899,-0.3125 z"
         id="path26"
         inkscape:connector-curvature="0" /><path
         d="m 39.169285,53.7071 c 0.0634,-0.064 0.0986,-0.147999 0.0986,-0.237801 0,-0.0894 -0.0352,-0.173298 -0.0986,-0.237301 -0.0655,-0.0654 -0.151402,-0.0981 -0.237286,-0.0981 -0.086,0 -0.171917,0.0327 -0.237316,0.0981 -0.130897,0.130902 -0.130897,0.344201 0,0.475102 0.1269,0.1269 0.347599,0.1269 0.474602,0 z"
         id="path28"
         inkscape:connector-curvature="0" /><path
         d="m 80.529579,12.2501 c -0.07909,-0.0786 -0.181579,-0.1177 -0.285095,-0.1177 -0.1036,0 -0.208,0.0395 -0.286202,0.1182 -0.157196,0.1567 -0.157196,0.413 0,0.5703 0.158204,0.1572 0.413102,0.1562 0.571297,0 0.157204,-0.1577 0.157204,-0.4136 0,-0.5708 z"
         id="path30"
         inkscape:connector-curvature="0" /><path
         d="m 84.501282,10.3448 c 0.157203,-0.1572 0.157203,-0.4125996 0,-0.5698004 C 84.42218,9.6963997 84.319679,9.6573 84.21608,9.6573 c -0.103501,0 -0.206993,0.0391 -0.28608,0.1182003 -0.157219,0.1567001 -0.157219,0.4125997 0,0.5697997 0.158181,0.1572 0.413086,0.1577 0.571282,-5e-4 z"
         id="path32"
         inkscape:connector-curvature="0" /><path
         d="m 40.598,52.083599 c 0.199184,-0.198799 0.308586,-0.462398 0.308586,-0.743198 0,-0.2803 -0.109402,-0.5439 -0.308586,-0.742703 -0.198315,-0.1987 -0.461915,-0.308098 -0.743218,-0.308098 -0.280296,0 -0.543899,0.109398 -0.742199,0.308098 -0.409199,0.409703 -0.409199,1.076203 0,1.485901 0.410202,0.408699 1.075199,0.409599 1.485417,0 z"
         id="path34"
         inkscape:connector-curvature="0" /><path
         d="m 36.225884,50.395599 c -0.412098,0 -0.823201,0.156201 -1.135701,0.469201 -0.625999,0.626499 -0.625999,1.645 0,2.270999 0.624001,0.6255 1.643502,0.6265 2.2715,0 0.6259,-0.625999 0.6259,-1.6445 0,-2.270999 -0.3135,-0.313 -0.724682,-0.469201 -1.135799,-0.469201 z"
         id="path36"
         inkscape:connector-curvature="0" /><path
         d="m 35.958283,54.433201 c -0.0976,0 -0.194283,0.0366 -0.268498,0.110798 -0.148502,0.148403 -0.148502,0.389202 0,0.537601 0.148399,0.1484 0.388599,0.1484 0.537098,0 0.148399,-0.148399 0.148399,-0.389198 0,-0.537601 -0.0742,-0.0742 -0.170883,-0.110798 -0.2686,-0.110798 z"
         id="path38"
         inkscape:connector-curvature="0" /><path
         d="m 34.736683,53.4893 c -0.184097,-0.183899 -0.3205,-0.396 -0.4221,-0.620098 -0.0442,0.0817 -0.0862,0.164997 -0.155098,0.233898 -0.0572,0.0571 -0.127701,0.0884 -0.193901,0.128502 0.3111,0.0512 0.612415,0.164497 0.8423,0.394397 0.207115,0.2071 0.344601,0.463601 0.411202,0.741402 0.0362,-0.0606 0.0651,-0.124801 0.117198,-0.176903 0.0825,-0.0823 0.178399,-0.142498 0.279599,-0.185199 -0.3214,-0.0971 -0.626,-0.2627 -0.8792,-0.515999 z"
         id="path40"
         inkscape:connector-curvature="0" /><path
         d="m 38.401684,49.484402 c -0.083,-0.0839 -0.194302,-0.129803 -0.311501,-0.129803 -0.117183,0 -0.2285,0.0459 -0.311599,0.129402 -0.171799,0.171799 -0.171799,0.4511 0,0.622998 0.166099,0.166999 0.457099,0.166999 0.6231,0 v -5e-4 c 0.084,-0.083 0.129902,-0.193298 0.129902,-0.310997 0,-0.117703 -0.0459,-0.2281 -0.129902,-0.3111 z"
         id="path42"
         inkscape:connector-curvature="0" /></g></g></svg>