<?xml version="1.0" encoding="UTF-8" standalone="no"?>
<svg
   xmlns:dc="http://purl.org/dc/elements/1.1/"
   xmlns:cc="http://creativecommons.org/ns#"
   xmlns:rdf="http://www.w3.org/1999/02/22-rdf-syntax-ns#"
   xmlns:svg="http://www.w3.org/2000/svg"
   xmlns="http://www.w3.org/2000/svg"
   xmlns:sodipodi="http://sodipodi.sourceforge.net/DTD/sodipodi-0.dtd"
   xmlns:inkscape="http://www.inkscape.org/namespaces/inkscape"
   version="1.1"
   x="0px"
   y="0px"
   viewBox="0 0 18.5 18.5"
   enable-background="new 0 0 24 24"
   xml:space="preserve"
   id="svg12"
   sodipodi:docname="link.svg"
   width="18.5"
   height="18.5"
   inkscape:version="0.92.3 (2405546, 2018-03-11)"><metadata
     id="metadata18"><rdf:RDF><cc:Work
         rdf:about=""><dc:format>image/svg+xml</dc:format><dc:type
           rdf:resource="http://purl.org/dc/dcmitype/StillImage" /><dc:title></dc:title></cc:Work></rdf:RDF></metadata><defs
     id="defs16" /><sodipodi:namedview
     pagecolor="#ffffff"
     bordercolor="#666666"
     borderopacity="1"
     objecttolerance="10"
     gridtolerance="10"
     guidetolerance="10"
     inkscape:pageopacity="0"
     inkscape:pageshadow="2"
     inkscape:window-width="1366"
     inkscape:window-height="715"
     id="namedview14"
     showgrid="false"
     inkscape:zoom="7.8666667"
     inkscape:cx="12"
     inkscape:cy="-2.1610169"
     inkscape:window-x="0"
     inkscape:window-y="25"
     inkscape:window-maximized="1"
     inkscape:current-layer="svg12" /><g
     id="g6"
     transform="translate(-2.635593,-2.6101698)"><path
       d="m 18.8,13.7 c -0.2,0 -0.4,0.2 -0.4,0.4 v 6.2 H 3.6 V 5.8 h 6.3 c 0.2,0 0.4,-0.2 0.4,-0.4 C 10.3,5.2 10.1,5 9.9,5 H 3.2 C 3,5 2.8,5.2 2.8,5.4 v 15.3 c 0,0.2 0.2,0.4 0.4,0.4 h 15.6 c 0.2,0 0.4,-0.2 0.4,-0.4 v -6.6 c 0,-0.2 -0.1,-0.4 -0.4,-0.4 z"
       id="path2"
       inkscape:connector-curvature="0"
       style="fill:#000000" /><path
       d="m 20.8,2.8 h -6.7 c -0.2,0 -0.4,0.2 -0.4,0.4 0,0.2 0.2,0.4 0.4,0.4 h 5.7 L 8.3,15.1 c -0.2,0.2 -0.2,0.4 0,0.6 0.1,0.1 0.2,0.1 0.3,0.1 0.1,0 0.2,0 0.3,-0.1 L 20.4,4.3 V 10 c 0,0.2 0.2,0.4 0.4,0.4 0.2,0 0.4,-0.2 0.4,-0.4 V 3.3 C 21.2,3 21,2.8 20.8,2.8 Z"
       id="path4"
       inkscape:connector-curvature="0"
       style="fill:#000000" /></g></svg>