<?xml version="1.0" encoding="UTF-8" standalone="no"?>
<svg
   xmlns:dc="http://purl.org/dc/elements/1.1/"
   xmlns:cc="http://creativecommons.org/ns#"
   xmlns:rdf="http://www.w3.org/1999/02/22-rdf-syntax-ns#"
   xmlns:svg="http://www.w3.org/2000/svg"
   xmlns="http://www.w3.org/2000/svg"
   xmlns:sodipodi="http://sodipodi.sourceforge.net/DTD/sodipodi-0.dtd"
   xmlns:inkscape="http://www.inkscape.org/namespaces/inkscape"
   data-name="Layer 2"
   viewBox="0 0 88.64 50.000002"
   x="0px"
   y="0px"
   version="1.1"
   id="svg172"
   sodipodi:docname="midi_keyboard.svg"
   inkscape:version="0.92.3 (2405546, 2018-03-11)"
   width="88.639999"
   height="50">
  <metadata
     id="metadata176">
    <rdf:RDF>
      <cc:Work
         rdf:about="">
        <dc:format>image/svg+xml</dc:format>
        <dc:type
           rdf:resource="http://purl.org/dc/dcmitype/StillImage" />
        <dc:title>Keyboard</dc:title>
      </cc:Work>
    </rdf:RDF>
  </metadata>
  <sodipodi:namedview
     pagecolor="#ffffff"
     bordercolor="#666666"
     borderopacity="1"
     objecttolerance="10"
     gridtolerance="10"
     guidetolerance="10"
     inkscape:pageopacity="0"
     inkscape:pageshadow="2"
     inkscape:window-width="1366"
     inkscape:window-height="715"
     id="namedview174"
     showgrid="false"
     inkscape:zoom="3.8003222"
     inkscape:cx="44.320001"
     inkscape:cy="30.443077"
     inkscape:window-x="0"
     inkscape:window-y="25"
     inkscape:window-maximized="1"
     inkscape:current-layer="svg172" />
  <defs
     id="defs4">
    <style
       id="style2">.cls-1{fill:none;}</style>
  </defs>
  <title
     id="title6">Keyboard</title>
  <rect
     class="cls-1"
     x="43.258381"
     y="65.489311"
     width="2.4400001"
     height="2.4400001"
     transform="rotate(-45)"
     id="rect8"
     style="fill:none" />
  <path
     class="cls-1"
     d="m 78.62,17.786298 -1.3,1.290001 a 5.32,5.32 0 0 0 2.1,-0.49 z"
     id="path10"
     inkscape:connector-curvature="0"
     style="fill:none" />
  <polygon
     class="cls-1"
     points="76.97,18.66 78.45,17.19 76.72,15.46 75,17.19 76.47,18.66 "
     id="polygon12"
     style="fill:none"
     transform="translate(0,0.42629224)" />
  <path
     class="cls-1"
     d="m 77.61,7.4062922 -0.72,0.72 1.73,1.7300032 1.56,-1.5900032 a 5.32,5.32 0 0 0 -2.57,-0.86 z"
     id="path14"
     inkscape:connector-curvature="0"
     style="fill:none" />
  <polygon
     class="cls-1"
     points="75.81,6.96 73.84,6.96 73.1,7.7 74.83,9.42 76.55,7.7 "
     id="polygon16"
     style="fill:none"
     transform="translate(0,0.42629224)" />
  <rect
     class="cls-1"
     x="45.952457"
     y="62.799469"
     width="2.4400001"
     height="2.4400001"
     transform="rotate(-45)"
     id="rect18"
     style="fill:none" />
  <polygon
     class="cls-1"
     points="74.83,17.36 73.52,18.66 76.13,18.66 "
     id="polygon20"
     style="fill:none"
     transform="translate(0,0.42629224)" />
  <polygon
     class="cls-1"
     points="71.03,17.36 69.73,18.66 72.33,18.66 "
     id="polygon22"
     style="fill:none"
     transform="translate(0,0.42629224)" />
  <polygon
     class="cls-1"
     points="69.38,18.66 70.86,17.19 69.13,15.46 67.41,17.19 68.88,18.66 "
     id="polygon24"
     style="fill:none"
     transform="translate(0,0.42629224)" />
  <polygon
     class="cls-1"
     points="73.18,18.66 74.65,17.19 72.93,15.46 71.2,17.19 72.67,18.66 "
     id="polygon26"
     style="fill:none"
     transform="translate(0,0.42629224)" />
  <polygon
     class="cls-1"
     points="66.25,6.96 65.51,7.7 67.23,9.42 68.96,7.7 68.22,6.96 "
     id="polygon28"
     style="fill:none"
     transform="translate(0,0.42629224)" />
  <path
     class="cls-1"
     d="m 62.03,8.4362922 1.41,1.4100032 1.73,-1.7300032 -0.68,-0.68 a 5.32,5.32 0 0 0 -2.46,1 z"
     id="path30"
     inkscape:connector-curvature="0"
     style="fill:none" />
  <path
     class="cls-1"
     d="m 59.85,13.776296 c 0,0 0,0.05 0,0.08 l 1.69,1.690002 1.73,-1.730002 -1.73,-1.730001 z"
     id="path32"
     inkscape:connector-curvature="0"
     style="fill:none" />
  <rect
     class="cls-1"
     x="35.203087"
     y="52.06559"
     width="2.4400001"
     height="2.4400001"
     transform="rotate(-45)"
     id="rect34"
     style="fill:none" />
  <path
     class="cls-1"
     d="m 61.32,15.716298 -1.45,-1.450002 a 5.31,5.31 0 0 0 0.74,2.250002 z"
     id="path36"
     inkscape:connector-curvature="0"
     style="fill:none" />
  <polygon
     class="cls-1"
     points="67.23,17.36 65.93,18.66 68.54,18.66 "
     id="polygon38"
     style="fill:none"
     transform="translate(0,0.42629224)" />
  <polygon
     class="cls-1"
     points="69.13,7.52 69.7,6.96 68.56,6.96 "
     id="polygon40"
     style="fill:none"
     transform="translate(0,0.42629224)" />
  <polygon
     class="cls-1"
     points="70.04,6.96 69.3,7.7 71.03,9.42 72.75,7.7 72.02,6.96 "
     id="polygon42"
     style="fill:none"
     transform="translate(0,0.42629224)" />
  <rect
     class="cls-1"
     x="37.895046"
     y="52.060638"
     width="2.4400001"
     height="2.4400001"
     transform="rotate(-45)"
     id="rect44"
     style="fill:none" />
  <polygon
     class="cls-1"
     points="72.93,7.52 73.49,6.96 72.36,6.96 "
     id="polygon46"
     style="fill:none"
     transform="translate(0,0.42629224)" />
  <rect
     class="cls-1"
     x="40.575607"
     y="62.802307"
     width="2.4400001"
     height="2.4400001"
     transform="rotate(-45)"
     id="rect48"
     style="fill:none" />
  <rect
     class="cls-1"
     x="37.895763"
     y="60.122375"
     width="2.4400001"
     height="2.4400001"
     transform="rotate(-45)"
     id="rect50"
     style="fill:none" />
  <rect
     class="cls-1"
     x="40.577721"
     y="60.117424"
     width="2.4400001"
     height="2.4400001"
     transform="rotate(-45)"
     id="rect52"
     style="fill:none" />
  <rect
     class="cls-1"
     x="35.212997"
     y="57.435371"
     width="2.4400001"
     height="2.4400001"
     transform="rotate(-45)"
     id="rect54"
     style="fill:none" />
  <rect
     class="cls-1"
     x="45.95034"
     y="65.48436"
     width="2.4400001"
     height="2.4400001"
     transform="rotate(-45)"
     id="rect56"
     style="fill:none" />
  <rect
     class="cls-1"
     x="37.890808"
     y="57.43042"
     width="2.4400001"
     height="2.4400001"
     transform="rotate(-45)"
     id="rect58"
     style="fill:none" />
  <path
     class="cls-1"
     d="m 63.26,17.616298 -1.73,-1.73 -0.8,0.8 a 5.39,5.39 0 0 0 1.78,1.670001 z"
     id="path60"
     inkscape:connector-curvature="0"
     style="fill:none" />
  <path
     class="cls-1"
     d="m 65.58,19.086299 1.47,-1.47 -1.73,-1.730001 -1.73,1.730001 1.47,1.47 h 0.51 z"
     id="path62"
     inkscape:connector-curvature="0"
     style="fill:none" />
  <path
     class="cls-1"
     d="m 82.53,14.106296 -0.12,-0.119999 -1.73,1.730001 1,1 a 5.32,5.32 0 0 0 0.85,-2.610002 z"
     id="path64"
     inkscape:connector-curvature="0"
     style="fill:none" />
  <rect
     class="cls-1"
     x="43.260498"
     y="62.804428"
     width="2.4400001"
     height="2.4400001"
     transform="rotate(-45)"
     id="rect66"
     style="fill:none" />
  <rect
     class="cls-1"
     x="35.208042"
     y="54.743408"
     width="2.4400001"
     height="2.4400001"
     transform="rotate(-45)"
     id="rect68"
     style="fill:none" />
  <rect
     class="cls-1"
     x="37.892933"
     y="54.745529"
     width="2.4400001"
     height="2.4400001"
     transform="rotate(-45)"
     id="rect70"
     style="fill:none" />
  <rect
     class="cls-1"
     x="43.255543"
     y="60.112465"
     width="2.4400001"
     height="2.4400001"
     transform="rotate(-45)"
     id="rect72"
     style="fill:none" />
  <path
     class="cls-1"
     d="m 64.71,19.066299 -1.28,-1.28 -0.7,0.7 a 5.31,5.31 0 0 0 1.98,0.58 z"
     id="path74"
     inkscape:connector-curvature="0"
     style="fill:none" />
  <rect
     class="cls-1"
     x="32.516079"
     y="54.74836"
     width="2.4400001"
     height="2.4400001"
     transform="rotate(-45)"
     id="rect76"
     style="fill:none" />
  <path
     class="cls-1"
     d="m 80.52,15.886298 -1.73,1.73 0.87,0.870001 a 5.39,5.39 0 0 0 1.86,-1.600001 z"
     id="path78"
     inkscape:connector-curvature="0"
     style="fill:none" />
  <rect
     class="cls-1"
     x="43.257656"
     y="57.427574"
     width="2.4400001"
     height="2.4400001"
     transform="rotate(-45)"
     id="rect80"
     style="fill:none" />
  <rect
     class="cls-1"
     x="40.577812"
     y="54.747643"
     width="2.4400001"
     height="2.4400001"
     transform="rotate(-45)"
     id="rect82"
     style="fill:none" />
  <rect
     class="cls-1"
     x="40.575699"
     y="57.432533"
     width="2.4400001"
     height="2.4400001"
     transform="rotate(-45)"
     id="rect84"
     style="fill:none" />
  <rect
     class="cls-1"
     x="45.94043"
     y="60.114586"
     width="2.4400001"
     height="2.4400001"
     transform="rotate(-45)"
     id="rect86"
     style="fill:none" />
  <path
     class="cls-1"
     d="M 8.03,40.2663 H 7.22 a 1,1 0 0 1 -1,-1 v -13 a 1,1 0 0 1 0.15,-0.49 h -5.4 v 19 a 4.39,4.39 0 0 0 4.35,4.36 H 8 v -8.87 z"
     id="path88"
     inkscape:connector-curvature="0"
     style="fill:none" />
  <rect
     class="cls-1"
     x="12.65"
     y="7.3862934"
     width="4.8800001"
     height="4.8800001"
     rx="1.46"
     ry="1.46"
     id="rect90"
     style="fill:none" />
  <path
     class="cls-1"
     d="m 82.32,25.7563 a 1,1 0 0 1 0.15,0.49 v 13.02 a 1,1 0 0 1 -1,1 h -0.54 v 8.86 h 2.39 a 4.39,4.39 0 0 0 4.38,-4.38 v -19 h -5.38 z"
     id="path92"
     inkscape:connector-curvature="0"
     style="fill:none" />
  <rect
     class="cls-1"
     x="12.65"
     y="14.976294"
     width="4.8800001"
     height="4.8800001"
     rx="1.46"
     ry="1.46"
     id="rect94"
     style="fill:none" />
  <rect
     class="cls-1"
     x="21.33"
     y="7.3862934"
     width="4.8800001"
     height="4.8800001"
     rx="1.46"
     ry="1.46"
     id="rect96"
     style="fill:none" />
  <path
     class="cls-1"
     d="m 69.68,40.2663 h -0.84 a 1,1 0 0 1 -1,-1 v -13 a 1,1 0 0 1 0.15,-0.49 h -6.16 a 1,1 0 0 1 0.15,0.49 v 13 a 1,1 0 0 1 -1,1 h -0.6 v 8.86 h 9.3 z"
     id="path98"
     inkscape:connector-curvature="0"
     style="fill:none" />
  <rect
     class="cls-1"
     x="21.33"
     y="14.976294"
     width="4.8800001"
     height="4.8800001"
     rx="1.46"
     ry="1.46"
     id="rect100"
     style="fill:none" />
  <path
     class="cls-1"
     d="m 80.69,11.916296 1.73,1.730001 0.14,-0.14 v -0.760001 a 5.32,5.32 0 0 0 -0.48,-2.210001 z"
     id="path102"
     inkscape:connector-curvature="0"
     style="fill:none" />
  <rect
     class="cls-1"
     x="4.6300001"
     y="14.976294"
     width="4.8800001"
     height="4.8800001"
     rx="1.46"
     ry="1.46"
     id="rect104"
     style="fill:none" />
  <path
     class="cls-1"
     d="M 78.32,25.7563 H 72.1 a 1,1 0 0 1 0.15,0.49 v 13.02 a 1,1 0 0 1 -1,1 h -0.59 v 8.86 h 9.3 v -8.86 H 79.1 a 1,1 0 0 1 -1,-1 v -13 a 1,1 0 0 1 0.22,-0.51 z"
     id="path106"
     inkscape:connector-curvature="0"
     style="fill:none" />
  <path
     class="cls-1"
     d="m 18.32,49.1363 v -8.87 h -0.83 a 1,1 0 0 1 -1,-1 v -13 a 1,1 0 0 1 0.15,-0.49 h -6.16 a 1,1 0 0 1 0.15,0.49 v 13 a 1,1 0 0 1 -1,1 H 9.01 v 8.86 h 9.31 z"
     id="path108"
     inkscape:connector-curvature="0"
     style="fill:none" />
  <path
     class="cls-1"
     d="m 28.58,40.2663 h -0.82 a 1,1 0 0 1 -1,-1 v -13 a 1,1 0 0 1 0.15,-0.49 h -6.16 a 1,1 0 0 1 0.15,0.49 v 13 a 1,1 0 0 1 -1,1 h -0.58 v 8.86 h 9.3 v -8.86 z"
     id="path110"
     inkscape:connector-curvature="0"
     style="fill:none" />
  <path
     class="cls-1"
     d="m 38.86,40.2663 h -0.83 a 1,1 0 0 1 -1,-1 v -13 a 1,1 0 0 1 0.15,-0.49 h -6.16 a 1,1 0 0 1 0.15,0.49 v 13 a 1,1 0 0 1 -1,1 h -0.61 v 8.86 h 9.3 z"
     id="path112"
     inkscape:connector-curvature="0"
     style="fill:none" />
  <path
     class="cls-1"
     d="M 87.67,24.7763 V 5.7762922 a 4.39,4.39 0 0 0 -4.35,-4.38 h -78 a 4.39,4.39 0 0 0 -4.38,4.38 V 24.7763 h 86.7 z M 58.87,12.776296 A 6.34,6.34 0 0 1 65.2,6.4462922 h 12 a 6.34,6.34 0 0 1 6.33,6.3300038 v 1 a 6.34,6.34 0 0 1 -6.33,6.330003 h -12 a 6.34,6.34 0 0 1 -6.33,-6.330003 z m -7.81,-1.940001 a 1.46,1.46 0 0 1 1.46,-1.4600011 h 0.55 V 8.0262922 a 0.5,0.5 0 1 1 1,0 v 1.3100017 h 0.55 a 1.46,1.46 0 0 1 1.46,1.4600011 v 0.770001 a 1.46,1.46 0 0 1 -1.46,1.46 H 54.04 V 20.2663 a 0.5,0.5 0 0 1 -1,0 v -7.240004 h -0.52 a 1.46,1.46 0 0 1 -1.46,-1.46 v -0.770001 z m -7.22,3.820002 a 1.46,1.46 0 0 1 1.48,-1.500001 h 0.55 V 7.9062922 a 0.5,0.5 0 1 1 1,0 v 5.2500038 h 0.45 a 1.46,1.46 0 0 1 1.46,1.460001 v 0.76 a 1.46,1.46 0 0 1 -1.46,1.470001 h -0.5 V 20.2663 a 0.5,0.5 0 0 1 -1,0 v -3.420002 h -0.5 a 1.46,1.46 0 0 1 -1.46,-1.460001 v -0.77 z M 37.94,9.4462949 A 1.46,1.46 0 0 1 39.4,7.9862922 h 2.18 a 1.46,1.46 0 0 1 1.46,1.4600027 v 0.8200001 a 1.46,1.46 0 0 1 -1.46,1.460001 H 40.91 V 20.3663 a 0.5,0.5 0 1 1 -1,0 V 11.706296 H 39.39 A 1.46,1.46 0 0 1 37.93,10.266295 V 9.4062939 Z M 28.39,8.8862924 a 2.44,2.44 0 0 1 2.44,-2.4400002 h 2 a 2.44,2.44 0 0 1 2.44,2.4400002 v 2.0000026 a 2.44,2.44 0 0 1 -2.5,2.380001 h -2 A 2.44,2.44 0 0 1 28.33,10.826295 V 8.8262934 Z m 0,7.5900056 a 2.44,2.44 0 0 1 2.44,-2.440002 h 2 a 2.44,2.44 0 0 1 2.44,2.440002 v 2.000001 A 2.44,2.44 0 0 1 32.83,20.9163 h -2 a 2.44,2.44 0 0 1 -2.44,-2.440001 z m -8,-7.5900056 a 2.44,2.44 0 0 1 2.44,-2.4400002 h 2 a 2.44,2.44 0 0 1 2.44,2.4400002 v 2.0000026 a 2.44,2.44 0 0 1 -2.52,2.380001 h -2 A 2.44,2.44 0 0 1 20.32,10.806295 V 8.8062924 Z m 0,7.5900056 a 2.44,2.44 0 0 1 2.44,-2.440002 h 2 a 2.44,2.44 0 0 1 2.44,2.440002 v 2.000001 A 2.44,2.44 0 0 1 24.83,20.9163 h -2 A 2.44,2.44 0 0 1 20.32,18.396299 V 16.396297 Z M 11.71,8.8862924 a 2.44,2.44 0 0 1 2.44,-2.4400002 h 2 a 2.44,2.44 0 0 1 2.44,2.4400002 v 2.0000026 a 2.44,2.44 0 0 1 -2.52,2.380001 h -2 A 2.44,2.44 0 0 1 11.63,10.826295 V 8.8262934 Z m 0,7.5900056 a 2.44,2.44 0 0 1 2.44,-2.440002 h 2 a 2.44,2.44 0 0 1 2.44,2.440002 v 2.000001 A 2.44,2.44 0 0 1 16.15,20.9163 h -2 a 2.44,2.44 0 0 1 -2.44,-2.440001 z m -8,-7.5900056 A 2.44,2.44 0 0 1 6.15,6.4462922 h 2 a 2.44,2.44 0 0 1 2.44,2.4400002 v 2.0000026 a 2.44,2.44 0 0 1 -2.55,2.380001 h -2 A 2.44,2.44 0 0 1 3.6,10.826295 V 8.8262934 Z m 0,7.5900056 a 2.44,2.44 0 0 1 2.44,-2.440001 h 2 a 2.44,2.44 0 0 1 2.44,2.440001 v 2.000001 A 2.44,2.44 0 0 1 8.15,20.9163 h -2 A 2.44,2.44 0 0 1 3.71,18.476299 Z"
     id="path114"
     inkscape:connector-curvature="0"
     style="fill:none" />
  <rect
     class="cls-1"
     x="4.6300001"
     y="7.3862934"
     width="4.8800001"
     height="4.8800001"
     rx="1.46"
     ry="1.46"
     id="rect116"
     style="fill:none" />
  <path
     class="cls-1"
     d="m 59.41,40.2663 h -0.84 a 1,1 0 0 1 -1,-1 v -13 a 1,1 0 0 1 0.15,-0.49 h -6.16 a 1,1 0 0 1 0.15,0.49 v 13 a 1,1 0 0 1 -1,1 h -0.6 v 8.86 h 9.3 z"
     id="path118"
     inkscape:connector-curvature="0"
     style="fill:none" />
  <path
     class="cls-1"
     d="m 61.32,11.916296 -1.1,-1.140001 a 5.32,5.32 0 0 0 -0.38,2.000001 v 0.700001 z"
     id="path120"
     inkscape:connector-curvature="0"
     style="fill:none" />
  <path
     class="cls-1"
     d="m 49.13,40.2663 h -0.81 a 1,1 0 0 1 -1,-1 v -13 a 1,1 0 0 1 0.15,-0.49 h -6.15 a 1,1 0 0 1 0.15,0.49 v 13 a 1,1 0 0 1 -1,1 h -0.64 v 8.86 h 9.3 z"
     id="path122"
     inkscape:connector-curvature="0"
     style="fill:none" />
  <path
     class="cls-1"
     d="M 61.54,11.746296 63.27,10.016295 61.84,8.5862922 A 5.38,5.38 0 0 0 60.32,10.536295 Z"
     id="path124"
     inkscape:connector-curvature="0"
     style="fill:none" />
  <rect
     class="cls-1"
     x="52.029999"
     y="10.316296"
     width="3.04"
     height="1.74"
     rx="0.49000001"
     ry="0.49000001"
     id="rect126"
     style="fill:none" />
  <path
     class="cls-1"
     d="m 78.79,10.016295 1.73,1.730001 1.44,-1.480001 A 5.39,5.39 0 0 0 80.37,8.4062922 Z"
     id="path128"
     inkscape:connector-curvature="0"
     style="fill:none" />
  <rect
     class="cls-1"
     x="44.810001"
     y="14.126295"
     width="3.04"
     height="1.74"
     rx="0.49000001"
     ry="0.49000001"
     id="rect130"
     style="fill:none" />
  <path
     class="cls-1"
     d="m 76.72,7.9462922 0.6,-0.56 h -1.16 z"
     id="path132"
     inkscape:connector-curvature="0"
     style="fill:none" />
  <rect
     class="cls-1"
     x="29.360001"
     y="14.976294"
     width="4.8800001"
     height="4.8800001"
     rx="1.46"
     ry="1.46"
     id="rect134"
     style="fill:none" />
  <path
     class="cls-1"
     d="m 65.32,7.9462922 0.57,-0.57 h -0.7 -0.41 z"
     id="path136"
     inkscape:connector-curvature="0"
     style="fill:none" />
  <rect
     class="cls-1"
     x="38.91"
     y="8.9162941"
     width="3.1600001"
     height="1.8200001"
     rx="0.49000001"
     ry="0.49000001"
     id="rect138"
     style="fill:none" />
  <rect
     class="cls-1"
     x="29.360001"
     y="7.3862934"
     width="4.8800001"
     height="4.8800001"
     rx="1.46"
     ry="1.46"
     id="rect140"
     style="fill:none" />
  <path
     d="m 83.32,0.42629224 h -78 A 5.36,5.36 0 0 0 -0.04,5.7862922 V 44.7863 a 5.36,5.36 0 0 0 5.36,5.32 h 78 a 5.36,5.36 0 0 0 5.36,-5.36 V 5.7462922 A 5.36,5.36 0 0 0 83.32,0.42629224 Z m -78,0.96999996 h 78 a 4.39,4.39 0 0 1 4.38,4.38 V 24.7763 H 0.97 V 5.7762922 a 4.39,4.39 0 0 1 4.35,-4.38 z M 79.1,40.2663 h 0.85 v 8.86 h -9.3 v -8.86 h 0.67 a 1,1 0 0 0 1,-1 v -13 a 1,1 0 0 0 -0.15,-0.49 h 6.15 a 1,1 0 0 0 -0.15,0.49 v 13 a 1,1 0 0 0 0.93,1 z m -69.44,0 a 1,1 0 0 0 1,-1 v -13 a 1,1 0 0 0 -0.15,-0.49 h 6.18 a 1,1 0 0 0 -0.15,0.49 v 13 a 1,1 0 0 0 1,1 h 0.78 v 8.86 h -9.3 v -8.86 h 0.65 z m 9.66,0 h 0.64 a 1,1 0 0 0 1,-1 v -13 a 1,1 0 0 0 -0.15,-0.49 h 6.18 a 1,1 0 0 0 -0.15,0.49 v 13 a 1,1 0 0 0 1,1 h 0.82 v 8.86 h -9.34 z m 10.27,0 h 0.64 a 1,1 0 0 0 1,-1 v -13 a 1,1 0 0 0 -0.15,-0.49 h 6.18 a 1,1 0 0 0 -0.15,0.49 v 13 a 1,1 0 0 0 1,1 h 0.83 v 8.86 h -9.3 v -8.86 z m 10.27,0 h 0.63 a 1,1 0 0 0 1,-1 v -13 a 1,1 0 0 0 -0.17,-0.51 h 6.18 a 1,1 0 0 0 -0.18,0.51 v 13 a 1,1 0 0 0 1,1 h 0.83 v 8.86 h -9.3 v -8.86 z m 10.27,0 h 0.63 a 1,1 0 0 0 1,-1 v -13 a 1,1 0 0 0 -0.15,-0.49 h 6.18 a 1,1 0 0 0 -0.15,0.49 v 13 a 1,1 0 0 0 1,1 h 0.84 v 8.86 h -9.3 v -8.86 z m 10.27,0 h 0.62 a 1,1 0 0 0 1,-1 v -13 a 1,1 0 0 0 -0.15,-0.49 h 6.18 a 1,1 0 0 0 -0.15,0.49 v 13 a 1,1 0 0 0 1,1 h 0.85 v 8.86 h -9.3 v -8.86 z m -59.43,4.48 v -19 H 6.4 a 1,1 0 0 0 -0.15,0.49 v 13.03 a 1,1 0 0 0 1,1 h 0.81 v 8.86 H 5.32 a 4.39,4.39 0 0 1 -4.35,-4.38 z m 82.35,4.39 h -2.39 v -8.87 h 0.61 a 1,1 0 0 0 1,-1 v -13 a 1,1 0 0 0 -0.22,-0.51 h 5.3 v 19 a 4.39,4.39 0 0 1 -4.3,4.38 z"
     id="path142"
     inkscape:connector-curvature="0" />
  <path
     d="m 6.09,13.266296 h 2 a 2.44,2.44 0 0 0 2.44,-2.440001 V 8.8262934 A 2.44,2.44 0 0 0 8.09,6.3862922 h -2 A 2.44,2.44 0 0 0 3.65,8.8262934 v 2.0000016 a 2.44,2.44 0 0 0 2.44,2.440001 z M 4.63,8.8762924 A 1.46,1.46 0 0 1 6.09,7.4162932 h 2 a 1.46,1.46 0 0 1 1.46,1.4599992 v 2.0000026 a 1.46,1.46 0 0 1 -1.51,1.390001 h -2 A 1.46,1.46 0 0 1 4.58,10.806295 V 8.8062924 Z"
     id="path144"
     inkscape:connector-curvature="0" />
  <path
     d="m 14.11,13.266296 h 2 a 2.44,2.44 0 0 0 2.44,-2.440001 V 8.8262934 A 2.44,2.44 0 0 0 16.11,6.3862922 h -2 a 2.44,2.44 0 0 0 -2.44,2.4400012 v 2.0000016 a 2.44,2.44 0 0 0 2.44,2.440001 z M 12.65,8.8762924 a 1.46,1.46 0 0 1 1.46,-1.4599992 h 2 a 1.46,1.46 0 0 1 1.46,1.4599992 v 2.0000026 a 1.46,1.46 0 0 1 -1.5,1.390001 h -2 A 1.46,1.46 0 0 1 12.61,10.806295 V 8.8062924 Z"
     id="path146"
     inkscape:connector-curvature="0" />
  <path
     d="m 6.09,20.8363 h 2 a 2.44,2.44 0 0 0 2.44,-2.440001 v -2.000002 a 2.44,2.44 0 0 0 -2.44,-2.44 h -2 a 2.44,2.44 0 0 0 -2.44,2.44 v 2.000002 A 2.44,2.44 0 0 0 6.09,20.8363 Z M 4.63,16.446298 a 1.46,1.46 0 0 1 1.46,-1.460001 h 2 a 1.46,1.46 0 0 1 1.46,1.460001 v 2.000001 a 1.46,1.46 0 0 1 -1.46,1.46 h -2 a 1.46,1.46 0 0 1 -1.46,-1.46 z"
     id="path148"
     inkscape:connector-curvature="0" />
  <path
     d="m 14.11,20.8363 h 2 a 2.44,2.44 0 0 0 2.44,-2.440001 v -2.000002 a 2.44,2.44 0 0 0 -2.44,-2.44 h -2 a 2.44,2.44 0 0 0 -2.44,2.44 v 2.000002 a 2.44,2.44 0 0 0 2.44,2.440001 z m -1.46,-4.390002 a 1.46,1.46 0 0 1 1.46,-1.460001 h 2 a 1.46,1.46 0 0 1 1.46,1.460001 v 2.000001 a 1.46,1.46 0 0 1 -1.46,1.46 h -2 a 1.46,1.46 0 0 1 -1.46,-1.46 z"
     id="path150"
     inkscape:connector-curvature="0" />
  <path
     d="m 22.79,13.266296 h 2 a 2.44,2.44 0 0 0 2.44,-2.440001 V 8.8262934 A 2.44,2.44 0 0 0 24.79,6.3862922 h -2 a 2.44,2.44 0 0 0 -2.47,2.4600002 v 2.0000026 a 2.44,2.44 0 0 0 2.47,2.420001 z M 21.32,8.8462924 a 1.46,1.46 0 0 1 1.46,-1.4600002 h 2 a 1.46,1.46 0 0 1 1.46,1.4600002 v 2.0000026 a 1.46,1.46 0 0 1 -1.49,1.420001 h -2 A 1.46,1.46 0 0 1 21.32,10.806295 V 8.8062924 Z"
     id="path152"
     inkscape:connector-curvature="0" />
  <path
     d="m 30.81,13.266296 h 2 a 2.44,2.44 0 0 0 2.44,-2.440001 V 8.8262934 A 2.44,2.44 0 0 0 32.81,6.3862922 h -2 a 2.44,2.44 0 0 0 -2.44,2.4400012 v 2.0000016 a 2.44,2.44 0 0 0 2.44,2.440001 z M 29.32,8.8462924 a 1.46,1.46 0 0 1 1.46,-1.4600002 h 2 a 1.46,1.46 0 0 1 1.46,1.4600002 v 2.0000026 a 1.46,1.46 0 0 1 -1.47,1.420001 h -2 A 1.46,1.46 0 0 1 29.32,10.806295 V 8.8062924 Z"
     id="path154"
     inkscape:connector-curvature="0" />
  <path
     d="m 22.79,20.8363 h 2 a 2.44,2.44 0 0 0 2.44,-2.440001 v -2.000002 a 2.44,2.44 0 0 0 -2.44,-2.44 h -2 a 2.44,2.44 0 0 0 -2.47,2.480001 v 2.000001 a 2.44,2.44 0 0 0 2.47,2.400001 z m -1.47,-4.400002 a 1.46,1.46 0 0 1 1.46,-1.460001 h 2 a 1.46,1.46 0 0 1 1.46,1.460001 v 2.000001 A 1.46,1.46 0 0 1 24.78,19.8963 h -2 a 1.46,1.46 0 0 1 -1.46,-1.500001 v -2.000002 z"
     id="path156"
     inkscape:connector-curvature="0" />
  <path
     d="m 30.81,20.8363 h 2 a 2.44,2.44 0 0 0 2.44,-2.440001 v -2.000002 a 2.44,2.44 0 0 0 -2.44,-2.44 h -2 a 2.44,2.44 0 0 0 -2.44,2.44 v 2.000002 a 2.44,2.44 0 0 0 2.44,2.440001 z m -1.49,-4.400002 a 1.46,1.46 0 0 1 1.46,-1.460001 h 2 a 1.46,1.46 0 0 1 1.46,1.460001 v 2.000001 A 1.46,1.46 0 0 1 32.78,19.8963 h -2 a 1.46,1.46 0 0 1 -1.46,-1.500001 v -2.000002 z"
     id="path158"
     inkscape:connector-curvature="0" />
  <path
     d="m 65.2,20.0563 h 12 a 6.34,6.34 0 0 0 6.33,-6.330003 V 12.726296 A 6.34,6.34 0 0 0 77.2,6.3962922 h -12 a 6.34,6.34 0 0 0 -6.33,6.3300038 v 1.000001 A 6.34,6.34 0 0 0 65.2,20.0563 Z m -4.46,-3.380002 0.8,-0.8 1.73,1.73 -0.75,0.75 a 5.39,5.39 0 0 1 -1.78,-1.67 z m 19.78,-1.13 -1.73,-1.730001 1.73,-1.730001 1.73,1.730001 z m 1.9,-1.550001 0.12,0.119999 a 5.32,5.32 0 0 1 -0.87,2.580002 l -1,-1 z m -15,-0.17 1.73,-1.730001 1.73,1.730001 -1.73,1.730001 z m 1.55,1.9 -1.73,1.730001 -1.73,-1.73 1.73,-1.730002 z m 2.07,-1.73 1.73,1.73 -1.73,1.730001 -1.72,-1.74 z m 0.17,-0.17 1.73,-1.730001 1.73,1.730001 -1.73,1.730001 z m 3.62,0.17 1.73,1.73 -1.74,1.710002 -1.73,-1.730001 z m 0.17,-0.17 1.73,-1.730001 1.73,1.730001 -1.74,1.720001 z m -0.17,-0.17 -1.73,-1.730001 1.73,-1.730001 1.73,1.730001 z m -1.9,-1.900001 -1.73,-1.730001 1.73,-1.7600028 1.73,1.7300032 z m -0.17,0.17 -1.73,1.730001 -1.71,-1.740001 1.73,-1.730001 z m -3.62,-0.17 -1.73,-1.730001 1.72,-1.7600028 1.73,1.7300032 z m -0.17,0.17 -1.73,1.730001 -1.73,-1.730001 1.73,-1.730001 z m -1.9,1.900001 -1.75,1.720001 -1.73,-1.730001 1.73,-1.730001 z m -1.9,1.9 -1.73,1.730001 -1.73,-1.73 1.73,-1.730002 z m -0.46,3.340002 a 5.31,5.31 0 0 1 -2,-0.58 l 0.7,-0.700001 z m -1.1,-1.450001 1.71,-1.730001 1.73,1.730001 -1.47,1.470001 h -0.51 z m 3.62,0.17 1.3,1.300001 h -2.6 z m 0.17,-0.17 1.73,-1.730001 1.73,1.730001 -1.47,1.470001 h -0.5 z m 3.62,0.17 1.3,1.300001 h -2.6 z m 0.17,-0.17 1.73,-1.730001 1.73,1.730001 -1.47,1.470001 h -0.5 z m 3.62,0.17 1.3,1.300001 h -2.59 z m 0.17,-0.17 1.73,-1.730001 1.73,1.730001 -1.47,1.470001 h -0.5 z m 3.62,0.17 0.81,0.810001 a 5.32,5.32 0 0 1 -2.1,0.49 z m -1.73,-2.07 1.73,-1.730002 1.72,1.730002 -1.7,1.720001 z m 1.73,-2.070001 -1.73,-1.730001 1.73,-1.730001 1.72,1.730001 z m -1.73,-5.5200048 0.72,-0.72 a 5.32,5.32 0 0 1 2.57,0.89 l -1.54,1.5500032 z m 1.55,1.9000028 -1.7,1.720001 -1.73,-1.730001 1.73,-1.7500028 z M 74.8,9.8562954 73.07,8.1262922 l 0.74,-0.74 h 2 l 0.74,0.74 z m -1.9,-1.9000032 -0.58,-0.57 h 1.13 z m -0.17,0.17 -1.73,1.7300032 -1.68,-1.7300022 0.74,-0.74 h 2 z m -3.62,-0.17 -0.57,-0.57 h 1.13 z m -0.17,0.17 -1.73,1.7300032 -1.73,-1.7300022 0.74,-0.74 h 2 z m -1.9,1.9000028 -1.72,1.720001 -1.73,-1.730001 1.73,-1.7500028 z M 63.42,9.8562954 62.01,8.4462922 a 5.32,5.32 0 0 1 2.45,-1 l 0.68,0.68 z m 1.73,2.0700006 -1.73,1.730001 -1.73,-1.730001 1.73,-1.730001 z m -1.9,1.900001 -1.73,1.730001 -1.69,-1.690001 c 0,0 0,-0.05 0,-0.08 l 1.69,-1.690001 z m -1.93,1.890001 -0.76,0.76 a 5.31,5.31 0 0 1 -0.69,-2.210002 z m 18.3,2.770001 -0.87,-0.870001 1.73,-1.730001 1,1.000001 a 5.39,5.39 0 0 1 -1.82,1.600001 z m 2.89,-5.000002 -0.14,0.14 -1.73,-1.730002 1.38,-1.38 a 5.32,5.32 0 0 1 0.48,2.210001 v 0.760001 z m -0.55,-3.220002 -1.44,1.48 -1.73,-1.73 1.58,-1.5800028 a 5.39,5.39 0 0 1 1.59,1.8300028 z m -4.64,-2.8800018 -0.56,0.56 -0.57,-0.57 h 1.13 z m -11.38,0 -0.62,0.56 -0.54,-0.54 h 0.41 0.7 z m -4.07,1.199999 1.43,1.4300028 -1.73,1.73 -1.25,-1.21 a 5.38,5.38 0 0 1 1.51,-1.9500028 z m -1.6,2.1900028 1.05,1.14 -1.52,1.520002 v -0.700001 a 5.32,5.32 0 0 1 0.42,-1.960001 z"
     id="path160"
     inkscape:connector-curvature="0" />
  <path
     d="m 39.39,11.706296 h 0.54 v 8.640003 a 0.5,0.5 0 1 0 1,0 v -8.640003 h 0.67 a 1.46,1.46 0 0 0 1.44,-1.440001 V 9.4062939 A 1.46,1.46 0 0 0 41.58,7.9462922 h -2.19 a 1.46,1.46 0 0 0 -1.46,1.4600017 v 0.8600011 a 1.46,1.46 0 0 0 1.46,1.440001 z M 38.9,9.4062939 a 0.49,0.49 0 0 1 0.49,-0.4900015 h 2.18 a 0.49,0.49 0 0 1 0.49,0.4900015 v 0.8600011 a 0.49,0.49 0 0 1 -0.49,0.49 h -2.18 a 0.49,0.49 0 0 1 -0.49,-0.49 z"
     id="path162"
     inkscape:connector-curvature="0" />
  <path
     d="m 45.32,16.846298 h 0.55 V 20.2663 a 0.5,0.5 0 0 0 1,0 v -3.420002 h 0.45 a 1.46,1.46 0 0 0 1.46,-1.460001 v -0.77 a 1.46,1.46 0 0 0 -1.46,-1.460001 h -0.5 V 7.9062922 a 0.5,0.5 0 1 0 -1,0 v 5.2500038 h -0.5 a 1.46,1.46 0 0 0 -1.46,1.460001 v 0.76 a 1.46,1.46 0 0 0 1.46,1.470001 z m -0.49,-2.230001 a 0.49,0.49 0 0 1 0.49,-0.490001 h 2 a 0.49,0.49 0 0 1 0.49,0.490001 v 0.76 a 0.49,0.49 0 0 1 -0.49,0.490001 h -2 a 0.49,0.49 0 0 1 -0.49,-0.490001 z"
     id="path164"
     inkscape:connector-curvature="0" />
  <path
     d="m 52.52,13.026296 h 0.55 V 20.2663 a 0.5,0.5 0 0 0 1,0 v -7.240004 h 0.55 a 1.46,1.46 0 0 0 1.46,-1.46 V 10.796295 A 1.46,1.46 0 0 0 54.62,9.3362939 H 54.04 V 8.0262922 a 0.5,0.5 0 1 0 -1,0 v 1.3100017 h -0.52 a 1.46,1.46 0 0 0 -1.46,1.4600011 v 0.770001 a 1.46,1.46 0 0 0 1.46,1.46 z m -0.49,-2.230001 a 0.49,0.49 0 0 1 0.49,-0.53 h 2.07 a 0.49,0.49 0 0 1 0.49,0.49 v 0.81 a 0.49,0.49 0 0 1 -0.49,0.49 h -2.07 a 0.49,0.49 0 0 1 -0.49,-0.49 z"
     id="path166"
     inkscape:connector-curvature="0" />
</svg>
