<?xml version="1.0" encoding="UTF-8" standalone="no"?>
<svg
   xmlns:dc="http://purl.org/dc/elements/1.1/"
   xmlns:cc="http://creativecommons.org/ns#"
   xmlns:rdf="http://www.w3.org/1999/02/22-rdf-syntax-ns#"
   xmlns:svg="http://www.w3.org/2000/svg"
   xmlns="http://www.w3.org/2000/svg"
   xmlns:sodipodi="http://sodipodi.sourceforge.net/DTD/sodipodi-0.dtd"
   xmlns:inkscape="http://www.inkscape.org/namespaces/inkscape"
   xml:space="preserve"
   version="1.1"
   style="clip-rule:evenodd;fill-rule:evenodd;image-rendering:optimizeQuality;shape-rendering:geometricPrecision;text-rendering:geometricPrecision"
   viewBox="0 0 79 79.75"
   x="0px"
   y="0px"
   id="svg14"
   sodipodi:docname="record-button-red.svg"
   width="79"
   height="79.75"
   inkscape:version="0.92.3 (2405546, 2018-03-11)"><metadata
     id="metadata18"><rdf:RDF><cc:Work
         rdf:about=""><dc:format>image/svg+xml</dc:format><dc:type
           rdf:resource="http://purl.org/dc/dcmitype/StillImage" /><dc:title /></cc:Work></rdf:RDF></metadata><sodipodi:namedview
     pagecolor="#ffffff"
     bordercolor="#666666"
     borderopacity="1"
     objecttolerance="10"
     gridtolerance="10"
     guidetolerance="10"
     inkscape:pageopacity="0"
     inkscape:pageshadow="2"
     inkscape:window-width="1920"
     inkscape:window-height="1027"
     id="namedview16"
     showgrid="false"
     inkscape:zoom="2.3898734"
     inkscape:cx="42.010593"
     inkscape:cy="46.864407"
     inkscape:window-x="0"
     inkscape:window-y="25"
     inkscape:window-maximized="1"
     inkscape:current-layer="g8" /><defs
     id="defs4"><style
       type="text/css"
       id="style2">
   
    .fil0 {fill:black;fill-rule:nonzero}
   
  </style></defs><g
     id="g8"
     transform="translate(0,0.581568)"><path
       class="fil0"
       d="m 40,23 c -10,0 -17,7 -17,17 0,9 7,17 17,17 9,0 17,-8 17,-17 C 57,30 49,23 40,23 Z M 40,0 C 62,0 79,18 79,40 79,62 62,79 40,79 18,79 0,62 0,40 0,18 18,0 40,0 Z m 0,7 C 22,7 7,22 7,40 7,58 22,72 40,72 58,72 72,58 72,40 72,22 58,7 40,7 Z"
       id="path6"
       inkscape:connector-curvature="0"
       style="fill:#ff0000;fill-rule:nonzero" /></g></svg>